<svg width="413" height="192" viewBox="0 0 413 192" fill="none" xmlns="http://www.w3.org/2000/svg">
<g clip-path="url(#clip0_37_8)">
<g clip-path="url(#clip1_37_8)">
<g clip-path="url(#clip2_37_8)">
<path d="M411.967 -110.5H1.0325C0.462266 -110.5 0 -110.038 0 -109.467V301.467C0 302.038 0.462266 302.5 1.0325 302.5H411.967C412.538 302.5 413 302.038 413 301.467V-109.467C413 -110.038 412.538 -110.5 411.967 -110.5Z" fill="#2A2A2A"/>
<g opacity="0.5">
<g opacity="0.5">
<path d="M206.744 142.979C180.775 142.979 159.724 121.927 159.724 95.9587C159.724 69.99 180.775 48.9384 206.744 48.9384C232.712 48.9384 253.764 69.99 253.764 95.9587C253.764 121.927 232.712 142.979 206.744 142.979Z" fill="#1E1E1E"/>
<path d="M206.744 142.979C180.775 142.979 159.724 121.927 159.724 95.9587C159.724 69.99 180.775 48.9384 206.744 48.9384C232.712 48.9384 253.764 69.99 253.764 95.9587C253.764 121.927 232.712 142.979 206.744 142.979Z" stroke="#454545" stroke-width="0.832195"/>
</g>
<path d="M273.859 163.662L139.138 28.9415" stroke="url(#paint0_linear_37_8)" stroke-width="0.832195"/>
<path d="M206.744 115.516C195.942 115.516 187.187 106.76 187.187 95.9586C187.187 85.1573 195.942 76.4014 206.744 76.4014C217.545 76.4014 226.301 85.1573 226.301 95.9586C226.301 106.76 217.545 115.516 206.744 115.516Z" fill="#1A1A1A"/>
<mask id="mask0_37_8" style="mask-type:luminance" maskUnits="userSpaceOnUse" x="200" y="89" width="14" height="14">
<path d="M200.086 89.3008H213.401V102.616H200.086V89.3008Z" fill="white"/>
</mask>
<g mask="url(#mask0_37_8)">
<path fill-rule="evenodd" clip-rule="evenodd" d="M212.153 91.3812H201.335V96.9485L202.557 95.7253L202.74 95.5426H205.861L205.886 95.5171L208.799 92.6044H209.682L212.153 95.0759V91.3812ZM206.744 96.4246L208.017 97.6977L208.459 98.1389L207.576 99.0217L207.135 98.5802L205.345 96.7908H203.257L201.36 98.6886L201.335 98.7137V99.7035C201.335 99.9242 201.422 100.136 201.578 100.292C201.734 100.448 201.946 100.536 202.167 100.536H211.321C211.542 100.536 211.753 100.448 211.909 100.292C212.065 100.136 212.153 99.9242 212.153 99.7035V96.8411L209.24 93.9284L206.769 96.3999L206.744 96.4246ZM200.086 98.2976V99.7035C200.086 99.9768 200.14 100.247 200.244 100.5C200.349 100.752 200.502 100.982 200.695 101.175C200.889 101.368 201.118 101.521 201.37 101.626C201.623 101.73 201.893 101.784 202.167 101.784H211.321C211.594 101.784 211.865 101.73 212.117 101.626C212.37 101.521 212.599 101.368 212.792 101.175C212.985 100.982 213.139 100.752 213.243 100.5C213.348 100.247 213.401 99.9767 213.401 99.7035V97.2572L213.868 96.7908L213.427 96.3493L213.401 96.3242V90.1329H200.086V98.1968L200.036 98.247L200.086 98.2976Z" fill="#949494"/>
</g>
<path d="M206.744 115.516C195.942 115.516 187.187 106.76 187.187 95.9586C187.187 85.1573 195.942 76.4014 206.744 76.4014C217.545 76.4014 226.301 85.1573 226.301 95.9586C226.301 106.76 217.545 115.516 206.744 115.516Z" stroke="#454545" stroke-width="0.832195"/>
</g>
</g>
</g>
</g>
<defs>
<linearGradient id="paint0_linear_37_8" x1="139.336" y1="28.5099" x2="274.291" y2="163.464" gradientUnits="userSpaceOnUse">
<stop stop-color="#454545" stop-opacity="0"/>
<stop offset="0.208" stop-color="#454545"/>
<stop offset="0.792" stop-color="#454545"/>
<stop offset="1" stop-color="#454545" stop-opacity="0"/>
</linearGradient>
<clipPath id="clip0_37_8">
<rect width="413" height="192" fill="white"/>
</clipPath>
<clipPath id="clip1_37_8">
<rect width="413" height="192" fill="white"/>
</clipPath>
<clipPath id="clip2_37_8">
<rect width="413" height="413" fill="white" transform="translate(0 -110.5)"/>
</clipPath>
</defs>
</svg>
