<?xml version="1.0" encoding="UTF-8"?>
<svg id="Layer_1" data-name="Layer 1" xmlns="http://www.w3.org/2000/svg" version="1.1" xmlns:xlink="http://www.w3.org/1999/xlink" viewBox="0 0 288 170.28">
  <defs>
    <style>
      .cls-1 {
        fill: url(#linear-gradient-38);
      }

      .cls-1, .cls-2, .cls-3, .cls-4, .cls-5, .cls-6, .cls-7, .cls-8, .cls-9, .cls-10, .cls-11, .cls-12, .cls-13, .cls-14, .cls-15, .cls-16, .cls-17, .cls-18, .cls-19, .cls-20, .cls-21, .cls-22, .cls-23, .cls-24, .cls-25, .cls-26, .cls-27, .cls-28, .cls-29, .cls-30, .cls-31, .cls-32, .cls-33, .cls-34, .cls-35, .cls-36, .cls-37, .cls-38, .cls-39, .cls-40, .cls-41, .cls-42, .cls-43, .cls-44, .cls-45, .cls-46, .cls-47, .cls-48, .cls-49, .cls-50, .cls-51, .cls-52, .cls-53, .cls-54, .cls-55 {
        stroke-width: 0px;
      }

      .cls-2 {
        fill: url(#linear-gradient-12);
      }

      .cls-3 {
        fill: url(#linear-gradient-17);
      }

      .cls-4 {
        fill: url(#linear-gradient-19);
      }

      .cls-5 {
        fill: url(#linear-gradient-33);
      }

      .cls-6 {
        fill: url(#linear-gradient);
      }

      .cls-7 {
        fill: url(#linear-gradient-21);
      }

      .cls-8 {
        fill: url(#linear-gradient-6);
      }

      .cls-9 {
        fill: url(#linear-gradient-42);
      }

      .cls-10 {
        fill: url(#linear-gradient-15);
      }

      .cls-11 {
        fill: url(#linear-gradient-11);
      }

      .cls-12 {
        fill: url(#linear-gradient-5);
      }

      .cls-13 {
        fill: url(#linear-gradient-31);
      }

      .cls-14 {
        fill: url(#linear-gradient-34);
      }

      .cls-15 {
        fill: url(#linear-gradient-41);
      }

      .cls-16 {
        fill: url(#linear-gradient-40);
      }

      .cls-17 {
        fill: url(#linear-gradient-13);
      }

      .cls-18 {
        fill: url(#linear-gradient-23);
      }

      .cls-19 {
        fill: url(#linear-gradient-25);
      }

      .cls-20 {
        fill: url(#linear-gradient-43);
      }

      .cls-21 {
        fill: url(#linear-gradient-16);
      }

      .cls-22 {
        fill: url(#linear-gradient-22);
      }

      .cls-23 {
        fill: url(#linear-gradient-54);
      }

      .cls-24 {
        fill: url(#linear-gradient-35);
      }

      .cls-25 {
        fill: url(#linear-gradient-50);
      }

      .cls-26 {
        fill: url(#linear-gradient-32);
      }

      .cls-27 {
        fill: url(#linear-gradient-20);
      }

      .cls-28 {
        fill: #001140;
      }

      .cls-29 {
        fill: url(#linear-gradient-14);
      }

      .cls-30 {
        fill: url(#linear-gradient-2);
      }

      .cls-31 {
        fill: url(#linear-gradient-52);
      }

      .cls-32 {
        fill: url(#linear-gradient-45);
      }

      .cls-33 {
        fill: url(#linear-gradient-7);
      }

      .cls-34 {
        fill: url(#linear-gradient-39);
      }

      .cls-35 {
        fill: url(#linear-gradient-3);
      }

      .cls-36 {
        fill: url(#linear-gradient-9);
      }

      .cls-37 {
        fill: url(#linear-gradient-27);
      }

      .cls-38 {
        fill: url(#linear-gradient-53);
      }

      .cls-39 {
        fill: url(#linear-gradient-36);
      }

      .cls-40 {
        fill: url(#linear-gradient-48);
      }

      .cls-41 {
        fill: url(#linear-gradient-49);
      }

      .cls-42 {
        fill: url(#linear-gradient-8);
      }

      .cls-43 {
        fill: url(#linear-gradient-47);
      }

      .cls-44 {
        fill: url(#linear-gradient-24);
      }

      .cls-45 {
        fill: url(#linear-gradient-26);
      }

      .cls-46 {
        fill: url(#linear-gradient-18);
      }

      .cls-47 {
        fill: url(#linear-gradient-51);
      }

      .cls-48 {
        fill: url(#linear-gradient-30);
      }

      .cls-49 {
        fill: url(#linear-gradient-44);
      }

      .cls-50 {
        fill: url(#linear-gradient-29);
      }

      .cls-51 {
        fill: url(#linear-gradient-46);
      }

      .cls-52 {
        fill: url(#linear-gradient-28);
      }

      .cls-53 {
        fill: url(#linear-gradient-10);
      }

      .cls-54 {
        fill: url(#linear-gradient-4);
      }

      .cls-55 {
        fill: url(#linear-gradient-37);
      }
    </style>
    <linearGradient id="linear-gradient" x1="157.24" y1="-57.04" x2="-26.46" y2="126.65" gradientUnits="userSpaceOnUse">
      <stop offset="0" stop-color="#ff0370"/>
      <stop offset=".12" stop-color="#e6107d"/>
      <stop offset=".38" stop-color="#a831a0"/>
      <stop offset=".75" stop-color="#4666d7"/>
      <stop offset="1" stop-color="#008dff"/>
    </linearGradient>
    <linearGradient id="linear-gradient-2" x1="299.79" y1="85.51" x2="116.09" y2="269.2" xlink:href="#linear-gradient"/>
    <linearGradient id="linear-gradient-3" x1="194.04" y1="-20.23" x2="10.35" y2="163.46" xlink:href="#linear-gradient"/>
    <linearGradient id="linear-gradient-4" x1="284.54" y1="70.26" x2="100.85" y2="253.96" xlink:href="#linear-gradient"/>
    <linearGradient id="linear-gradient-5" x1="199.7" y1="-14.57" x2="16.01" y2="169.12" xlink:href="#linear-gradient"/>
    <linearGradient id="linear-gradient-6" x1="301.98" y1="87.7" x2="118.29" y2="271.4" xlink:href="#linear-gradient"/>
    <linearGradient id="linear-gradient-7" x1="195.77" y1="-18.51" x2="12.07" y2="165.18" xlink:href="#linear-gradient"/>
    <linearGradient id="linear-gradient-8" x1="265.31" y1="47.66" x2="81.61" y2="231.36" xlink:href="#linear-gradient"/>
    <linearGradient id="linear-gradient-9" x1="177.43" y1="-36.85" x2="-6.26" y2="146.85" xlink:href="#linear-gradient"/>
    <linearGradient id="linear-gradient-10" x1="276.67" y1="62.4" x2="92.98" y2="246.09" xlink:href="#linear-gradient"/>
    <linearGradient id="linear-gradient-11" x1="164.81" y1="-49.47" x2="-18.89" y2="134.22" xlink:href="#linear-gradient"/>
    <linearGradient id="linear-gradient-12" x1="191.72" y1="-22.56" x2="8.03" y2="161.14" xlink:href="#linear-gradient"/>
    <linearGradient id="linear-gradient-13" x1="215.59" y1="1.31" x2="31.89" y2="185" xlink:href="#linear-gradient"/>
    <linearGradient id="linear-gradient-14" x1="281.19" y1="66.91" x2="97.49" y2="250.6" xlink:href="#linear-gradient"/>
    <linearGradient id="linear-gradient-15" x1="168.87" y1="-45.41" x2="-14.82" y2="138.29" xlink:href="#linear-gradient"/>
    <linearGradient id="linear-gradient-16" x1="177.41" y1="-36.87" x2="-6.28" y2="146.83" xlink:href="#linear-gradient"/>
    <linearGradient id="linear-gradient-17" x1="238.67" y1="24.4" x2="54.98" y2="208.09" xlink:href="#linear-gradient"/>
    <linearGradient id="linear-gradient-18" x1="192.56" y1="-21.72" x2="8.86" y2="161.97" xlink:href="#linear-gradient"/>
    <linearGradient id="linear-gradient-19" x1="305.28" y1="91" x2="121.59" y2="274.7" xlink:href="#linear-gradient"/>
    <linearGradient id="linear-gradient-20" x1="203.62" y1="-10.66" x2="19.92" y2="173.03" xlink:href="#linear-gradient"/>
    <linearGradient id="linear-gradient-21" x1="230" y1="15.73" x2="46.31" y2="199.42" xlink:href="#linear-gradient"/>
    <linearGradient id="linear-gradient-22" x1="251.06" y1="36.79" x2="67.37" y2="220.48" xlink:href="#linear-gradient"/>
    <linearGradient id="linear-gradient-23" x1="317.83" y1="103.55" x2="134.13" y2="287.24" xlink:href="#linear-gradient"/>
    <linearGradient id="linear-gradient-24" x1="182.28" y1="-32" x2="-1.41" y2="151.7" xlink:href="#linear-gradient"/>
    <linearGradient id="linear-gradient-25" x1="227.77" y1="13.49" x2="44.07" y2="197.18" xlink:href="#linear-gradient"/>
    <linearGradient id="linear-gradient-26" x1="177" y1="-37.28" x2="-6.7" y2="146.41" xlink:href="#linear-gradient"/>
    <linearGradient id="linear-gradient-27" x1="163.32" y1="-50.96" x2="-20.37" y2="132.74" xlink:href="#linear-gradient"/>
    <linearGradient id="linear-gradient-28" x1="168.66" y1="-45.61" x2="-15.03" y2="138.08" xlink:href="#linear-gradient"/>
    <linearGradient id="linear-gradient-29" x1="187.96" y1="-26.32" x2="4.27" y2="157.38" xlink:href="#linear-gradient"/>
    <linearGradient id="linear-gradient-30" x1="262.97" y1="48.69" x2="79.28" y2="232.39" xlink:href="#linear-gradient"/>
    <linearGradient id="linear-gradient-31" x1="262.13" y1="47.85" x2="78.44" y2="231.55" xlink:href="#linear-gradient"/>
    <linearGradient id="linear-gradient-32" x1="161.11" y1="-53.17" x2="-22.58" y2="130.53" xlink:href="#linear-gradient"/>
    <linearGradient id="linear-gradient-33" x1="163.41" y1="-50.87" x2="-20.28" y2="132.83" xlink:href="#linear-gradient"/>
    <linearGradient id="linear-gradient-34" x1="157.99" y1="-56.28" x2="-25.7" y2="127.41" xlink:href="#linear-gradient"/>
    <linearGradient id="linear-gradient-35" x1="279.54" y1="65.26" x2="95.84" y2="248.96" xlink:href="#linear-gradient"/>
    <linearGradient id="linear-gradient-36" x1="281.02" y1="66.74" x2="97.32" y2="250.44" xlink:href="#linear-gradient"/>
    <linearGradient id="linear-gradient-37" x1="282.63" y1="68.35" x2="98.93" y2="252.04" xlink:href="#linear-gradient"/>
    <linearGradient id="linear-gradient-38" x1="255.16" y1="40.88" x2="71.47" y2="224.57" xlink:href="#linear-gradient"/>
    <linearGradient id="linear-gradient-39" x1="256.31" y1="42.03" x2="72.6" y2="225.73" xlink:href="#linear-gradient"/>
    <linearGradient id="linear-gradient-40" x1="253.69" y1="39.41" x2="69.99" y2="223.1" xlink:href="#linear-gradient"/>
    <linearGradient id="linear-gradient-41" x1="170.54" y1="-43.74" x2="-13.15" y2="139.96" xlink:href="#linear-gradient"/>
    <linearGradient id="linear-gradient-42" x1="169.67" y1="-44.61" x2="-14.03" y2="139.09" xlink:href="#linear-gradient"/>
    <linearGradient id="linear-gradient-43" x1="171.63" y1="-42.65" x2="-12.06" y2="141.05" xlink:href="#linear-gradient"/>
    <linearGradient id="linear-gradient-44" x1="186.42" y1="-27.86" x2="2.72" y2="155.83" xlink:href="#linear-gradient"/>
    <linearGradient id="linear-gradient-45" x1="187.14" y1="-27.14" x2="3.45" y2="156.56" xlink:href="#linear-gradient"/>
    <linearGradient id="linear-gradient-46" x1="188.63" y1="-25.66" x2="4.94" y2="158.04" xlink:href="#linear-gradient"/>
    <linearGradient id="linear-gradient-47" x1="224.08" y1="9.8" x2="40.38" y2="193.5" xlink:href="#linear-gradient"/>
    <linearGradient id="linear-gradient-48" x1="224" y1="9.73" x2="40.31" y2="193.42" xlink:href="#linear-gradient"/>
    <linearGradient id="linear-gradient-49" x1="221.87" y1="7.59" x2="38.17" y2="191.28" xlink:href="#linear-gradient"/>
    <linearGradient id="linear-gradient-50" x1="189.59" y1="-24.69" x2="5.9" y2="159.01" xlink:href="#linear-gradient"/>
    <linearGradient id="linear-gradient-51" x1="172.15" y1="-42.13" x2="-11.54" y2="141.57" xlink:href="#linear-gradient"/>
    <linearGradient id="linear-gradient-52" x1="218.65" y1="4.37" x2="34.96" y2="188.07" xlink:href="#linear-gradient"/>
    <linearGradient id="linear-gradient-53" x1="316.41" y1="102.13" x2="132.72" y2="285.83" xlink:href="#linear-gradient"/>
    <linearGradient id="linear-gradient-54" x1="302.69" y1="88.42" x2="119" y2="272.11" xlink:href="#linear-gradient"/>
  </defs>
  <path class="cls-28" d="M68.95,71.88l.09.5,8.7-1.51c-.24.51-.16,1.24.26,1.86.57.86,1.56,1.21,2.21.78.65-.43.7-1.48.13-2.34-.44-.66-1.13-1.02-1.72-.95v-.02s-9.67,1.67-9.67,1.67Z"/>
  <path class="cls-28" d="M97.32,81.71l.29-.22-3.79-5.05c.4-.02.84-.3,1.1-.77.36-.64.26-1.39-.22-1.66-.48-.27-1.17.03-1.53.68-.28.5-.28,1.05-.05,1.4h0s4.21,5.62,4.21,5.62Z"/>
  <path class="cls-28" d="M210.36,154.48l-.51-.46-7.96,8.84c-.18-.74-.86-1.44-1.83-1.76-1.32-.43-2.66.02-2.99,1.01-.33.99.49,2.15,1.81,2.58,1.02.34,2.05.14,2.61-.42h.02s8.84-9.8,8.84-9.8Z"/>
  <path class="cls-28" d="M223.69,148.05l-.07.39,6.86,1.18c-.31.32-.44.88-.3,1.45.2.79.84,1.31,1.44,1.16.59-.15.91-.91.71-1.7-.15-.61-.57-1.06-1.03-1.16h0s-7.62-1.32-7.62-1.32Z"/>
  <path class="cls-28" d="M193.35,76.8l.22-.31-5.49-3.85c.4-.15.75-.58.86-1.14.15-.77-.19-1.49-.77-1.6-.58-.11-1.17.42-1.32,1.19-.12.59.06,1.15.41,1.43h0s6.1,4.28,6.1,4.28Z"/>
  <path class="cls-28" d="M206.23,146.43l.68.1,1.74-11.82c.56.52,1.53.72,2.51.45,1.35-.37,2.21-1.5,1.93-2.51-.28-1.01-1.6-1.53-2.95-1.15-1.04.29-1.79,1.02-1.95,1.81h-.02s-1.93,13.13-1.93,13.13Z"/>
  <path class="cls-28" d="M140.54,97.73l-.4-.42-7.32,6.94c-.1-.64-.64-1.28-1.43-1.61-1.09-.46-2.25-.16-2.6.66-.34.82.27,1.85,1.36,2.31.84.35,1.72.26,2.24-.18h.01s8.13-7.7,8.13-7.7Z"/>
  <path class="cls-28" d="M164.83,68.64l.27.5,8.68-4.73c-.06.63.28,1.37.95,1.88.92.7,2.09.72,2.62.03.53-.69.21-1.82-.71-2.52-.71-.54-1.57-.67-2.16-.39v-.02s-9.65,5.25-9.65,5.25Z"/>
  <path class="cls-28" d="M44.71,109.59l.54.25,4.31-9.39c.34.57,1.09.97,1.97.98,1.21.02,2.2-.71,2.21-1.61.01-.91-.96-1.66-2.17-1.67-.93-.01-1.73.41-2.06,1.03h-.02s-4.79,10.42-4.79,10.42Z"/>
  <path class="cls-28" d="M219.23,124.02l4.9,6.47,1.88-.85h0s6.17-2.78,6.17-2.78c0,.46.25.98.69,1.37.72.64,1.69.73,2.17.19.48-.54.29-1.49-.43-2.14-.51-.46-1.15-.63-1.65-.49h0s-.03,0-.03,0c-.11.03-.21.07-.3.13l-7.05,3.17-4.13-5.35,6.22-2.8c0,.47.25.98.69,1.38.72.64,1.69.73,2.17.19.48-.54.29-1.5-.43-2.14-.6-.54-1.37-.68-1.89-.4h0s-7.18,3.23-7.18,3.23h0s-1.8.81-1.8.81Z"/>
  <path class="cls-28" d="M49.22,137.84l4.9-.63.12-1.25h0s.4-4.11.4-4.11c.25.14.59.16.93.05.56-.19.9-.67.76-1.09-.14-.42-.7-.61-1.26-.42-.4.13-.68.42-.76.72h0s0,.02,0,.02c-.02.07-.02.13-.02.2l-.45,4.69-4.08.57.4-4.14c.25.14.59.17.94.05.56-.18.9-.67.76-1.09-.14-.42-.7-.61-1.26-.42-.46.15-.77.52-.78.88h0s-.46,4.78-.46,4.78h0s-.12,1.2-.12,1.2Z"/>
  <path class="cls-28" d="M168,91.96l4.13,3.77,1.17-.81h0s3.84-2.66,3.84-2.66c.06.31.29.63.64.84.57.34,1.24.28,1.5-.14.26-.43,0-1.05-.56-1.4-.4-.25-.86-.28-1.18-.13h0s-.02,0-.02,0c-.07.03-.13.08-.19.13l-4.38,3.03-3.47-3.11,3.87-2.68c.06.32.29.64.64.85.57.35,1.24.28,1.5-.14.26-.43,0-1.05-.56-1.4-.47-.29-1.01-.29-1.33-.03h0s-4.46,3.09-4.46,3.09h0s-1.12.77-1.12.77Z"/>
  <path class="cls-28" d="M179.46,50.15l6.55.78.56-1.58h0s1.85-5.18,1.85-5.18c.28.25.71.4,1.19.37.78-.06,1.38-.58,1.33-1.17-.04-.59-.71-1.01-1.49-.96-.56.04-1.02.32-1.22.69h0s0,.02,0,.02c-.04.08-.07.16-.09.25l-2.11,5.91-5.46-.59,1.86-5.22c.28.26.71.41,1.2.37.78-.06,1.38-.58,1.34-1.16-.04-.59-.71-1.01-1.49-.95-.65.05-1.17.42-1.3.88h0s-2.15,6.03-2.15,6.03h0s-.54,1.51-.54,1.51Z"/>
  <path class="cls-28" d="M63.04,96.89l2.59-4.47-.96-.89h0s-3.15-2.93-3.15-2.93c.27-.12.51-.39.63-.74.2-.58,0-1.17-.43-1.32-.44-.15-.95.2-1.15.78-.14.41-.08.83.12,1.09h0s.01.02.01.02c.04.05.09.1.15.14l3.6,3.35-2.12,3.74-3.18-2.96c.27-.12.52-.39.64-.75.2-.58,0-1.17-.42-1.32-.44-.15-.95.2-1.15.78-.17.48-.06.97.23,1.21h0s3.67,3.42,3.67,3.42h0s.92.86.92.86Z"/>
  <path class="cls-28" d="M248.75,134.34l6.75-3.34c-.13-.16-1.67-1.91-5.09-5.84.4-.13.79-.47,1.02-.96.37-.8.19-1.67-.41-1.95-.6-.28-1.38.14-1.75.94-.33.7-.23,1.45.2,1.82l4.3,4.95-5.54,2.83-4.51-5.19c.4-.13.78-.47,1.01-.96.37-.8.19-1.67-.41-1.95-.6-.28-1.38.14-1.76.94-.33.71-.22,1.47.23,1.83,6.01,6.9,5.11,5.86,5.94,6.88Z"/>
  <path class="cls-28" d="M226.07,102.58l-5.21-6.31c-.13.18-1.6,2.25-4.91,6.83-.24-.39-.7-.72-1.27-.84-.93-.2-1.81.22-1.96.92-.15.7.49,1.43,1.43,1.62.82.17,1.59-.12,1.87-.67l4.16-5.79,4.38,5.15-4.36,6.07c-.24-.39-.7-.71-1.27-.83-.94-.2-1.81.21-1.96.92-.15.7.49,1.43,1.43,1.62.83.17,1.61-.13,1.88-.7,5.81-8.07,4.93-6.86,5.8-8Z"/>
  <path class="cls-28" d="M74.67,117.74l.94-4.4c-.12,0-1.52.08-4.62.22.09-.24.07-.55-.07-.83-.24-.47-.71-.71-1.06-.53-.35.18-.45.7-.21,1.17.21.41.6.65.93.58l3.92-.19-.72,3.65-4.11.19c.09-.24.07-.54-.08-.83-.24-.47-.71-.71-1.06-.53-.35.18-.45.7-.21,1.17.21.42.61.65.94.57,5.47-.26,4.64-.23,5.43-.24Z"/>
  <path class="cls-28" d="M238.89,109.24l5.54,3.56c.06-.17.68-2.11,2.09-6.44.28.24.71.38,1.18.33.76-.08,1.34-.61,1.28-1.18-.06-.57-.73-.97-1.49-.9-.67.07-1.19.48-1.27.97l-1.78,5.45-4.61-2.88,1.86-5.72c.28.24.71.37,1.17.33.76-.08,1.34-.61,1.28-1.18-.06-.57-.73-.97-1.49-.9-.68.07-1.2.5-1.27.99-2.48,7.61-2.1,6.46-2.49,7.55Z"/>
  <path class="cls-28" d="M97.61,154.86l-1.53-6.67c-.17.08-2.04,1.08-6.23,3.27-.03-.38-.25-.8-.64-1.1-.63-.5-1.44-.52-1.81-.05-.37.47-.17,1.25.46,1.75.55.44,1.24.51,1.65.2l5.28-2.77,1.34,5.49-5.54,2.9c-.03-.38-.26-.79-.64-1.1-.63-.5-1.44-.52-1.81-.05-.37.47-.17,1.25.46,1.75.56.44,1.26.51,1.67.18,7.37-3.86,6.26-3.29,7.33-3.81Z"/>
  <path class="cls-28" d="M237.93,92.14l.91-6.05-1.45-.57h0s-4.75-1.86-4.75-1.86c.24-.25.39-.65.38-1.09-.03-.73-.5-1.29-1.04-1.27-.55.02-.96.63-.93,1.36.02.52.27.95.6,1.15h0s.02.01.02.01c.07.04.15.07.23.09l4.65,1.83-.74,5.03-3.99-1.57c.25-.25.4-.65.38-1.1-.03-.73-.5-1.29-1.04-1.27-.54.02-.96.63-.93,1.36.03.6.36,1.09.78,1.23h0s5.53,2.18,5.53,2.18h0s1.39.55,1.39.55ZM236.29,90.96l.74-5.03.29.12-.71,5.05-.32-.13Z"/>
  <path class="cls-28" d="M147.8,54.24l-.85,6.93,1.67.6h0s5.48,1.98,5.48,1.98c-.27.29-.43.75-.4,1.26.06.83.61,1.46,1.23,1.42.62-.04,1.07-.75,1.02-1.58-.04-.59-.34-1.08-.72-1.29h0s-.02-.01-.02-.01c-.08-.04-.17-.08-.27-.1l-5.36-1.94.69-5.77,4.6,1.66c-.28.29-.44.76-.4,1.27.06.83.61,1.46,1.23,1.42.62-.04,1.08-.75,1.02-1.58-.05-.69-.44-1.24-.93-1.38h0s-6.38-2.31-6.38-2.31h0s-1.6-.58-1.6-.58ZM149.71,55.54l-.69,5.77-.34-.12.65-5.78.37.13Z"/>
  <path class="cls-28" d="M93.83,110.53l-1.47,4.14.94.6h0s3.09,1.96,3.09,1.96c-.21.14-.37.4-.41.72-.08.52.17.98.56,1.04.39.06.76-.31.84-.83.05-.37-.06-.71-.27-.89h0s-.01-.01-.01-.01c-.05-.04-.1-.07-.15-.1l-3.03-1.92,1.21-3.45,2.6,1.65c-.21.14-.37.4-.42.72-.08.52.17.98.56,1.04.39.06.76-.31.84-.83.06-.43-.1-.82-.38-.97h0s-3.6-2.29-3.6-2.29h0s-.9-.58-.9-.58ZM94.82,111.59l-1.21,3.45-.19-.12,1.19-3.46.21.13Z"/>
  <path class="cls-28" d="M160.41,109.13l-2.44-3.51-1.01.4h0s-3.31,1.33-3.31,1.33c0-.24-.11-.52-.33-.74-.36-.35-.87-.42-1.14-.15-.27.27-.18.78.18,1.13.26.25.59.35.86.3h0s.01,0,.01,0c.06-.01.11-.03.16-.06l3.24-1.3,2.04,2.91-2.78,1.12c0-.24-.11-.52-.33-.74-.36-.35-.87-.42-1.14-.15-.27.27-.18.78.18,1.13.3.29.71.39.99.25h0s3.85-1.55,3.85-1.55h0s.97-.39.97-.39ZM159.01,109.32l-2.04-2.91.21-.08,2.06,2.9-.22.09Z"/>
  <path class="cls-28" d="M73.07,149.95l-4.94,1.89.19,1.33h0s.62,4.36.62,4.36c-.29-.08-.66-.02-.98.18-.53.33-.76.92-.51,1.32.25.4.88.45,1.42.12.38-.24.6-.61.61-.94h0s0-.02,0-.02c0-.07,0-.14-.03-.21l-.6-4.27,4.1-1.59.52,3.66c-.29-.08-.66-.02-.99.18-.53.33-.76.92-.51,1.32.25.4.88.45,1.41.12.44-.28.67-.73.59-1.11h0s-.72-5.08-.72-5.08h0s-.18-1.28-.18-1.28ZM72.88,151.68l-4.1,1.59-.04-.27,4.1-1.61.04.3Z"/>
  <path class="cls-28" d="M118.02,73.51l-.25-6.96-1.74-.33h0s-5.7-1.08-5.7-1.08c.22-.33.31-.81.19-1.3-.19-.8-.83-1.34-1.43-1.2-.6.14-.94.91-.75,1.71.13.57.5,1.01.92,1.16h0s.02.01.02.01c.09.03.18.05.28.05l5.58,1.06.23,5.79-4.79-.91c.23-.33.31-.81.2-1.31-.19-.8-.83-1.34-1.43-1.2-.6.14-.94.91-.75,1.71.16.67.63,1.15,1.13,1.21h0s6.64,1.27,6.64,1.27h0s1.67.32,1.67.32ZM115.94,72.53l-.23-5.79.35.07.27,5.79-.39-.07Z"/>
  <path class="cls-28" d="M195.43,90.16l-5.97,5.35.99,1.78h0s3.24,5.84,3.24,5.84c-.45.05-.94.32-1.29.79-.57.76-.58,1.72-.01,2.15.57.43,1.49.16,2.07-.59.41-.54.52-1.18.35-1.66h0s-.01-.03-.01-.03c-.04-.1-.09-.2-.16-.28l-3.17-5.72,4.95-4.47,2.72,4.91c-.46.04-.95.32-1.3.79-.57.76-.58,1.72-.01,2.15.57.43,1.5.16,2.07-.59.48-.63.55-1.4.24-1.89h0s-3.77-6.81-3.77-6.81h0s-.95-1.71-.95-1.71ZM196.09,92.72l-4.95,4.47-.2-.36,4.93-4.5.22.4Z"/>
  <path class="cls-28" d="M198,60.9l8.13.35.55-1.99h0s1.79-6.54,1.79-6.54c.36.29.91.43,1.5.34.95-.15,1.64-.84,1.53-1.56-.11-.72-.97-1.18-1.93-1.04-.68.1-1.22.49-1.44.96h0s0,.03,0,.03c-.04.1-.08.21-.09.32l-1.75,6.4-6.76-.26,1.51-5.49c.36.29.92.44,1.51.35.95-.14,1.64-.84,1.53-1.56-.11-.72-.97-1.18-1.93-1.04-.8.12-1.4.63-1.52,1.2h0s-2.09,7.62-2.09,7.62h0s-.52,1.91-.52,1.91ZM199.34,58.56l6.76.26-.11.41-6.77-.22.12-.45Z"/>
  <path class="cls-28" d="M114.81,35.65l-4.89,6.49,1.33,1.58h0s4.36,5.18,4.36,5.18c-.44.14-.87.51-1.13,1.04-.42.87-.24,1.83.41,2.14.65.32,1.52-.13,1.94-1,.3-.62.29-1.28.02-1.73h0s-.02-.03-.02-.03c-.06-.09-.13-.18-.21-.25l-4.27-5.07,4.05-5.41,3.66,4.35c-.45.13-.88.51-1.14,1.04-.42.87-.24,1.83.41,2.14.65.32,1.52-.13,1.94-1,.35-.72.28-1.5-.13-1.93h0s-5.08-6.04-5.08-6.04h0s-1.28-1.52-1.28-1.52ZM115.98,38.07l-4.05,5.41-.27-.32,4.02-5.44.3.35Z"/>
  <path class="cls-28" d="M206.85,120.9c.62-.31.79-1.24.37-2.07-.36-.73-1.06-1.14-1.64-1.02l-8.55.41.02.45,7.87-.37c-.25.43-.26,1.07.04,1.66.42.83,1.26,1.25,1.88.94Z"/>
  <path class="cls-28" d="M181.3,112.08c-.19-.62-1.02-.92-1.85-.67-.73.22-1.22.79-1.2,1.35l-.96,7.94.42.05.89-7.32c.36.3.95.41,1.54.22.83-.25,1.35-.96,1.16-1.59Z"/>
  <path class="cls-28" d="M156.1,78.63c-.25-.88-1.4-1.33-2.58-1.01-1.03.29-1.74,1.07-1.73,1.86l-1.64,11.15.59.09,1.51-10.27c.49.44,1.32.6,2.16.37,1.18-.33,1.93-1.31,1.69-2.19Z"/>
  <path class="cls-28" d="M124.66,138.06c-.79-.44-1.91.06-2.51,1.11-.52.93-.46,1.97.1,2.52l6.7,8.94.47-.35-6.17-8.23c.65-.04,1.35-.51,1.77-1.26.59-1.06.43-2.27-.36-2.72Z"/>
  <path class="cls-28" d="M134.69,81.11c.36-.25.37-.84.04-1.32-.3-.42-.76-.61-1.12-.48l-5.28,1.06.06.28,4.87-.97c-.12.29-.06.69.18,1.03.34.48.9.66,1.26.41Z"/>
  <path class="cls-28" d="M49.21,149.82c-.61-.38-1.51-.02-2.01.79-.44.71-.43,1.54,0,1.98l4.95,7.26.38-.26-4.56-6.68c.51-.01,1.07-.35,1.43-.93.5-.81.42-1.77-.19-2.15Z"/>
  <path class="cls-28" d="M91.61,53.38c.05.17.22.26.39.21.17-.05.26-.22.21-.39-.38-1.28.83-2.05,2.1-2.72l.25-.13c.57-.31.96-.57,1.24-.81l-.69,9.77c-.55-.42-1.43-.54-2.3-.23-1.21.44-1.92,1.53-1.6,2.43.33.91,1.57,1.29,2.78.85,1.03-.37,1.69-1.21,1.67-2.01l.85-11.99c.01-.17-.12-.32-.29-.34s-.32.12-.34.29v.02c-.14.4-.37.76-1.63,1.45l-.24.13c-1.04.55-2.97,1.57-2.41,3.45Z"/>
  <path class="cls-28" d="M247.03,150.23c.12.02.24-.06.26-.19.02-.12-.06-.24-.19-.26-.96-.16-1.07-1.18-1.11-2.22v-.21c-.03-.47-.08-.81-.15-1.07l6.14,3.53c-.45.23-.8.76-.87,1.43-.1.93.39,1.73,1.08,1.81.69.07,1.34-.62,1.43-1.54.08-.79-.25-1.48-.78-1.72l-7.54-4.33c-.11-.06-.25-.03-.31.08s-.02.25.08.31h.01c.21.23.38.49.43,1.52v.2c.04.85.09,2.43,1.5,2.66Z"/>
  <path class="cls-28" d="M208.04,80.37c0,.16.13.3.3.3.16,0,.3-.13.3-.3,0-1.27,1.31-1.63,2.65-1.89l.26-.05c.6-.12,1.03-.25,1.35-.4l-3.32,8.67c-.38-.53-1.15-.88-2.03-.84-1.22.06-2.16.86-2.12,1.77.05.91,1.07,1.6,2.29,1.54,1.03-.05,1.87-.63,2.07-1.36l4.07-10.63c.06-.15-.02-.33-.17-.38-.15-.06-.33.02-.38.17v.02c-.24.32-.55.59-1.88.87l-.26.05c-1.09.21-3.12.6-3.13,2.47Z"/>
  <path class="cls-28" d="M86.58,94.24c-.14,0-.25.1-.26.23,0,.14.1.25.23.26,1.05.05,1.29,1.14,1.46,2.25l.03.22c.08.5.17.86.28,1.13l-7.03-3.05c.46-.3.77-.92.76-1.64,0-1.01-.63-1.82-1.38-1.81-.76,0-1.36.83-1.35,1.83,0,.85.45,1.56,1.05,1.76l8.62,3.74c.12.05.27,0,.32-.13.05-.12,0-.27-.13-.32h-.02c-.26-.21-.47-.48-.65-1.58l-.03-.21c-.13-.91-.38-2.6-1.92-2.67Z"/>
  <path class="cls-28" d="M138.16,123.46c-.01.14.09.26.23.28.14.01.26-.09.28-.23.1-1.09,1.25-1.3,2.41-1.42l.23-.02c.53-.06.9-.14,1.19-.24l-3.48,7.18c-.29-.49-.92-.84-1.67-.87-1.05-.03-1.92.57-1.95,1.36-.03.79.8,1.45,1.85,1.49.89.03,1.65-.4,1.87-1.01l4.28-8.81c.06-.13,0-.28-.12-.34-.13-.06-.28,0-.34.12v.02c-.24.26-.52.47-1.68.6l-.22.02c-.95.1-2.72.29-2.87,1.88Z"/>
  <g>
    <path class="cls-28" d="M156.97,127.41c-.33-.41-.93-.48-1.35-.15-.41.33-.48.93-.15,1.34s.93.48,1.35.15c.41-.33.48-.93.15-1.35Z"/>
    <path class="cls-28" d="M158.64,126.07c.33.41.93.48,1.35.15s.48-.93.15-1.35-.93-.48-1.34-.15-.48.93-.15,1.34Z"/>
    <path class="cls-28" d="M156.21,132.7c.07.79.33,1.52.69,2.15.37.63.84,1.15,1.37,1.54.53.39,1.11.64,1.67.76,2.7.54,4.23-1.61,3.05-3.09-.62-.77-1.74-.89-2.51-.28-.54.43-.75,1.11-.63,1.74-.24-.06-.5-.16-.76-.33-.77-.47-1.52-1.44-1.71-2.63-.1-.59-.05-1.23.17-1.83.21-.61.6-1.17,1.08-1.66.5-.49,1.08-.9,1.69-1.25.61-.35,1.25-.62,1.89-.83,1.28-.41,2.56-.51,3.65-.48,1.09.03,1.99.22,2.61.37.62.16.96.29.96.29.07.03.16,0,.19-.08.03-.07,0-.16-.08-.2h0s-.35-.15-.98-.33c-.63-.18-1.55-.39-2.67-.48-1.12-.09-2.46-.05-3.85.31-.69.18-1.39.44-2.07.78-.67.34-1.33.77-1.92,1.27-.6.52-1.12,1.16-1.45,1.91-.33.75-.46,1.58-.39,2.36Z"/>
  </g>
  <g>
    <path class="cls-28" d="M109.68,157.48c.05-.45-.26-.85-.71-.9-.44-.05-.85.26-.9.71-.05.45.26.85.71.91.45.05.85-.26.91-.71Z"/>
    <path class="cls-28" d="M111.48,157.7c-.05.45.26.85.71.91.45.05.85-.26.9-.71.05-.45-.26-.85-.71-.9s-.85.26-.9.71Z"/>
    <path class="cls-28" d="M106.02,160.15c-.44.51-.73,1.1-.89,1.69-.16.59-.2,1.19-.12,1.75.08.55.27,1.06.53,1.46,1.27,1.96,3.49,1.61,3.68.02.1-.83-.49-1.59-1.32-1.69-.58-.07-1.12.2-1.43.65-.11-.18-.2-.4-.25-.66-.17-.75-.03-1.78.58-2.6.3-.41.71-.76,1.21-.99.49-.23,1.07-.33,1.65-.33.59,0,1.18.12,1.76.28.57.16,1.12.39,1.62.66,1.01.54,1.83,1.25,2.46,1.93.63.68,1.05,1.34,1.33,1.8.27.47.39.75.39.75.03.06.1.09.16.07.06-.02.1-.1.07-.16h0s-.12-.3-.38-.79c-.26-.49-.68-1.17-1.29-1.91-.61-.74-1.43-1.53-2.47-2.16-.52-.31-1.09-.59-1.7-.79-.6-.2-1.25-.35-1.91-.42-.67-.06-1.37,0-2.02.25-.65.24-1.23.66-1.66,1.16Z"/>
  </g>
  <g>
    <path class="cls-28" d="M226.22,66.62c.42.03.78-.28.82-.7.03-.42-.28-.78-.7-.82-.42-.03-.79.28-.82.7-.03.42.28.79.7.82Z"/>
    <path class="cls-28" d="M226.09,68.33c-.42-.03-.79.28-.82.7-.03.42.28.78.7.82.42.03.78-.28.82-.7.03-.42-.28-.78-.7-.82Z"/>
    <path class="cls-28" d="M223.56,63.32c-.49-.39-1.06-.64-1.62-.76-.56-.13-1.13-.14-1.64-.04-.51.1-.98.3-1.35.56-1.78,1.28-1.36,3.33.14,3.45.78.06,1.46-.53,1.52-1.31.04-.55-.24-1.04-.67-1.31.17-.11.37-.2.6-.26.69-.19,1.66-.1,2.46.43.4.26.74.64.97,1.09.24.45.36.98.38,1.53.02.56-.07,1.11-.19,1.66-.13.54-.31,1.06-.54,1.54-.46.97-1.09,1.77-1.7,2.38-.61.62-1.21,1.04-1.63,1.32-.43.28-.69.4-.69.4-.06.03-.08.1-.06.15.03.06.1.09.16.06h0s.28-.12.73-.39c.45-.27,1.06-.69,1.73-1.29.66-.6,1.37-1.4,1.91-2.4.27-.5.5-1.05.67-1.62.17-.57.28-1.19.31-1.81.02-.63-.07-1.28-.32-1.88-.25-.6-.67-1.12-1.16-1.51Z"/>
  </g>
  <g>
    <path class="cls-28" d="M184.13,141.07c-.32-.02-.59.22-.61.53-.02.32.22.59.53.61.32.02.59-.22.61-.53.02-.32-.22-.59-.53-.61Z"/>
    <path class="cls-28" d="M184.22,139.78c.32.02.59-.22.61-.53.02-.32-.22-.59-.53-.61-.32-.02-.59.22-.61.53-.02.32.22.59.53.61Z"/>
    <path class="cls-28" d="M186.15,143.54c.37.29.8.47,1.23.57.42.09.85.09,1.23.02.39-.08.74-.23,1.01-.43,1.33-.97,1-2.52-.12-2.6-.59-.04-1.1.4-1.14.99-.03.41.18.78.51.98-.13.08-.28.16-.45.2-.52.15-1.25.09-1.85-.31-.3-.2-.56-.47-.74-.82-.18-.34-.27-.74-.29-1.15-.02-.42.04-.84.13-1.25.09-.41.23-.8.4-1.17.34-.73.81-1.34,1.27-1.8.46-.47.9-.79,1.22-1,.32-.21.51-.3.51-.3.04-.02.06-.07.04-.12-.02-.04-.07-.07-.12-.05h0s-.21.09-.54.3c-.34.2-.8.53-1.3.98-.5.46-1.02,1.06-1.43,1.82-.2.38-.37.79-.49,1.23-.12.43-.2.9-.22,1.36-.01.47.06.97.26,1.41.19.45.51.84.88,1.13Z"/>
  </g>
  <g>
    <path class="cls-28" d="M137.94,35.48c-.07-.31-.37-.51-.68-.44-.31.07-.51.37-.44.68s.37.51.68.44c.31-.07.51-.37.44-.68Z"/>
    <path class="cls-28" d="M139.19,35.21c.07.31.37.51.68.44.31-.07.51-.37.44-.68-.07-.31-.37-.51-.68-.44-.31.07-.51.37-.44.68Z"/>
    <path class="cls-28" d="M136.11,38.11c-.17.44-.23.9-.21,1.34.03.43.14.84.32,1.19.18.35.42.64.69.85,1.3,1.01,2.7.27,2.46-.83-.12-.58-.69-.95-1.27-.82-.4.09-.7.39-.8.76-.11-.1-.23-.22-.32-.38-.29-.46-.43-1.18-.21-1.87.11-.34.3-.67.58-.94.28-.27.64-.47,1.03-.6.4-.13.82-.19,1.24-.22.42-.02.84,0,1.23.06.8.13,1.51.41,2.09.72.58.31,1.01.65,1.3.9.29.25.43.41.43.41.03.04.09.04.12,0,.04-.03.04-.09.01-.13h0s-.15-.18-.44-.44c-.29-.27-.73-.62-1.3-.98-.58-.35-1.31-.69-2.15-.87-.42-.09-.86-.14-1.32-.14-.45,0-.92.05-1.37.16-.46.12-.91.32-1.29.64-.38.31-.67.72-.84,1.16Z"/>
  </g>
  <g>
    <path class="cls-28" d="M80,131.77c.08-.28-.09-.57-.37-.65-.28-.08-.57.09-.65.37-.08.28.09.57.37.65.28.08.57-.09.65-.37Z"/>
    <path class="cls-28" d="M81.15,132.08c-.08.28.09.57.37.65s.57-.09.65-.37-.09-.57-.37-.65-.57.09-.65.37Z"/>
    <path class="cls-28" d="M77.4,133.15c-.33.29-.57.64-.73,1.01-.16.37-.24.75-.24,1.11,0,.36.07.71.21.99.64,1.38,2.09,1.36,2.37.36.14-.52-.17-1.07-.69-1.21-.37-.1-.74.02-.98.28-.05-.13-.09-.28-.1-.45-.04-.5.15-1.14.62-1.62.23-.24.53-.42.87-.52.34-.1.72-.11,1.09-.06.38.06.75.19,1.11.34.35.16.68.35.98.57.6.44,1.06.98,1.4,1.47.34.5.55.96.68,1.28.13.33.18.52.18.52.01.04.05.07.1.06.04,0,.07-.05.06-.1h0s-.05-.21-.17-.55c-.12-.34-.33-.82-.65-1.35-.32-.53-.78-1.11-1.39-1.62-.3-.25-.65-.48-1.02-.67-.37-.19-.77-.34-1.19-.45-.42-.1-.88-.12-1.32-.02-.44.09-.85.31-1.18.59Z"/>
  </g>
  <g>
    <path class="cls-28" d="M165.87,151.55c-.28-.16-.63-.06-.78.22-.15.28-.06.63.22.78s.63.06.78-.22c.16-.28.06-.63-.22-.78Z"/>
    <path class="cls-28" d="M166.5,150.43c.28.15.63.06.78-.22s.06-.63-.22-.78c-.28-.15-.63-.06-.78.22s-.06.63.22.78Z"/>
    <path class="cls-28" d="M166.64,154.66c.22.42.52.77.87,1.04.34.27.73.45,1.11.55.38.1.76.11,1.1.04,1.62-.31,1.99-1.85,1-2.4-.51-.29-1.17-.11-1.46.41-.2.36-.17.78.04,1.11-.15.02-.32.02-.5-.01-.53-.09-1.17-.46-1.54-1.08-.19-.31-.31-.67-.32-1.06-.02-.38.07-.79.23-1.16.17-.39.4-.74.66-1.07.26-.33.55-.63.86-.88.62-.51,1.31-.86,1.92-1.09.61-.23,1.16-.33,1.53-.38.38-.05.6-.05.6-.05.05,0,.09-.04.09-.09,0-.05-.04-.09-.09-.09h0s-.23,0-.62.03c-.39.04-.95.13-1.59.33-.64.2-1.38.52-2.07,1.03-.34.25-.68.56-.97.9-.3.34-.57.72-.78,1.14-.22.42-.36.9-.38,1.39-.02.49.1.98.32,1.4Z"/>
  </g>
  <g>
    <path class="cls-28" d="M113.55,117.28c-.53-.19-1.1.09-1.29.61-.19.52.09,1.1.61,1.29.53.19,1.1-.09,1.29-.61.19-.53-.09-1.11-.61-1.29Z"/>
    <path class="cls-28" d="M114.31,115.15c.53.19,1.1-.08,1.29-.61.19-.53-.09-1.1-.61-1.29-.53-.19-1.1.08-1.29.61-.19.53.09,1.1.61,1.29Z"/>
    <path class="cls-28" d="M115.79,122.45c.5.67,1.14,1.19,1.81,1.55.68.36,1.39.57,2.08.62.69.06,1.36-.04,1.92-.25,2.72-1.01,2.91-3.79,1.03-4.46-.98-.35-2.06.16-2.41,1.14-.24.68-.06,1.41.4,1.91-.25.08-.54.13-.87.13-.95,0-2.16-.45-2.99-1.42-.41-.48-.73-1.07-.86-1.74-.14-.66-.11-1.39.06-2.09.17-.72.48-1.4.82-2.06.35-.65.78-1.25,1.24-1.79.93-1.07,2.02-1.88,3.02-2.45,1-.58,1.91-.91,2.55-1.11.64-.2,1.02-.27,1.02-.27.08-.01.14-.09.13-.18-.01-.09-.09-.15-.18-.13h0s-.4.06-1.06.24c-.67.18-1.6.51-2.67,1.04-1.06.54-2.24,1.31-3.29,2.4-.52.54-1.01,1.16-1.43,1.84-.41.68-.77,1.42-1.03,2.2-.25.79-.36,1.66-.24,2.52.11.85.46,1.67.96,2.34Z"/>
  </g>
  <path class="cls-28" d="M161.15,38.92c.08.44.32.85.68,1.12.34.26.77.37,1.15.35.22,0,.42-.06.61-.13,0,.1,0,.2-.01.3-.01.19-.02.38-.04.58-.21.12-.41.26-.6.42-.46.36-.84.85-1.03,1.41-.56,1.69-.19,2.64.27,2.7,1.01.07,1.25-1.63,1.44-3.41.17-.13.34-.26.53-.38l.33-.21c.11-.07.23-.15.35-.24.47-.33.89-.75,1.19-1.26.31-.51.44-1.16.28-1.74-.16-.58-.55-1.04-.99-1.34-.44-.29-.91-.46-1.39-.54,0-.26.02-.51.03-.74-.02-.63.32-1.13.73-1.23.31-.07.56.06.71.21-.02,0-.04-.02-.06-.02-.28-.07-.56.1-.63.38-.07.28.1.56.38.63.28.07.56-.1.63-.38,0-.02,0-.04,0-.07h0s0,0,0,0c.01-.11-.01-.23-.07-.32,0-.02-.02-.04-.03-.07-.06-.12-.16-.25-.32-.36-.16-.1-.38-.18-.64-.16-.26.02-.53.18-.7.44-.09.13-.16.27-.19.43-.03.17-.04.32-.06.49-.01.23-.02.48-.03.73-.43-.03-.87.01-1.27.14-.45.17-.85.49-1.06.91-.22.42-.28.9-.19,1.34ZM162.1,44.98c-.18-.11-.15-.38-.11-.55.1-.4.29-.79.56-1.11.26-.3.53-.58.82-.85-.27,1.76-.9,2.72-1.27,2.51ZM165.05,37.43c.35.3.62.69.7,1.12.07.43-.06.86-.33,1.23-.27.36-.67.66-1.08.91-.1.06-.2.12-.33.18l-.17.09s-.08.04-.12.06c.01-.15.02-.3.03-.45,0-.13.01-.26.02-.4.36-.19.61-.49.75-.76.23-.47.21-.88.17-1.13-.02-.13-.05-.22-.07-.28-.02-.06-.03-.09-.03-.09,0,0,0,.14-.02.38-.03.24-.11.6-.36.93-.1.14-.24.27-.4.37.03-.55.05-1.09.06-1.59.02-.39.02-.77.04-1.12.42.1.82.29,1.15.57ZM161.61,37.7c.14-.37.47-.68.88-.81.36-.12.78-.14,1.18-.08,0,.37-.01.76-.02,1.16,0,.54-.02,1.11-.04,1.7-.19.09-.41.14-.64.14-.54,0-1.11-.36-1.35-1.02-.12-.33-.15-.72-.01-1.09Z"/>
  <path class="cls-28" d="M113.23,89.04c-.9.1-1.76.53-2.35,1.21-.57.65-.86,1.49-.87,2.26-.01.45.06.86.18,1.24-.2-.02-.4-.05-.6-.07-.38-.05-.77-.1-1.16-.16-.22-.43-.47-.86-.77-1.26-.67-.97-1.59-1.81-2.7-2.27-3.32-1.36-5.29-.75-5.47.16-.28,2.03,3.11,2.75,6.66,3.39.25.36.48.72.68,1.11l.37.7c.12.23.27.48.43.74.6,1,1.38,1.9,2.37,2.59.98.7,2.28,1.06,3.47.81,1.19-.23,2.17-.95,2.84-1.8.64-.84,1.07-1.77,1.28-2.73.52.05,1.02.11,1.49.17,1.28.06,2.22.8,2.37,1.65.09.63-.2,1.11-.53,1.39.02-.04.04-.07.05-.11.18-.55-.12-1.14-.67-1.32-.55-.18-1.14.12-1.32.67-.18.55.12,1.14.67,1.32.04.01.09.02.13.03h0s0,0,.01,0c.23.04.46,0,.65-.09.05-.02.09-.03.14-.05.24-.1.53-.29.76-.6.23-.31.42-.74.4-1.26,0-.52-.29-1.1-.79-1.47-.24-.19-.53-.36-.85-.44-.34-.09-.64-.13-.98-.18-.47-.06-.96-.12-1.46-.17.13-.87.09-1.75-.11-2.58-.27-.94-.86-1.78-1.68-2.27-.81-.51-1.77-.69-2.68-.58ZM100.9,90.08c.24-.35.79-.25,1.13-.14.8.25,1.55.69,2.15,1.29.57.58,1.1,1.16,1.59,1.77-3.5-.8-5.35-2.21-4.86-2.92ZM115.67,97.11c-.65.66-1.48,1.16-2.36,1.24-.87.09-1.73-.24-2.42-.84-.69-.6-1.23-1.44-1.67-2.3-.1-.2-.21-.43-.32-.69l-.15-.35c-.04-.08-.07-.17-.11-.25.31.04.61.09.91.13.27.04.53.07.8.1.34.75.89,1.31,1.43,1.63.92.53,1.75.55,2.26.5.26-.03.45-.07.58-.1.13-.03.19-.05.19-.05,0,0-.28,0-.77-.1-.48-.1-1.19-.3-1.83-.86-.26-.22-.5-.52-.69-.87,1.11.13,2.18.25,3.2.35.79.09,1.54.16,2.26.23-.26.83-.7,1.61-1.31,2.23ZM115.62,90.13c.72.33,1.3,1.04,1.5,1.89.19.75.18,1.58,0,2.39-.74-.07-1.53-.14-2.34-.21-1.08-.09-2.23-.19-3.42-.32-.15-.4-.23-.84-.18-1.31.1-1.08.87-2.18,2.25-2.57.68-.2,1.48-.2,2.2.13Z"/>
  <path class="cls-28" d="M143.54,147.44c.05.6.33,1.18.77,1.58.42.39.98.59,1.49.62.3.02.58-.03.83-.1-.02.13-.04.26-.06.4-.04.25-.08.51-.13.77-.29.14-.58.3-.85.49-.66.43-1.23,1.03-1.55,1.76-.96,2.19-.58,3.51.02,3.64,1.35.22,1.88-2.03,2.36-4.38.24-.16.49-.31.75-.44l.47-.24c.16-.08.32-.17.5-.27.67-.39,1.28-.89,1.76-1.54.48-.64.74-1.5.59-2.3-.14-.8-.6-1.46-1.15-1.91-.55-.44-1.16-.74-1.8-.89.04-.34.09-.68.14-.99.06-.85.56-1.47,1.13-1.55.42-.05.74.15.92.37-.02-.01-.05-.03-.07-.03-.36-.13-.76.06-.89.42-.13.36.07.76.43.89.36.13.76-.06.89-.43.01-.03.02-.06.02-.09h0s0,0,0,0c.03-.15.01-.3-.05-.43,0-.03-.02-.06-.03-.1-.07-.16-.19-.36-.39-.52-.21-.16-.49-.29-.83-.29-.35,0-.73.18-.99.5-.13.16-.24.35-.31.56-.07.23-.1.43-.14.65-.05.31-.09.64-.14.97-.58-.1-1.16-.09-1.72.03-.63.16-1.2.55-1.54,1.08-.35.53-.49,1.17-.43,1.77ZM144.04,155.66c-.23-.16-.15-.53-.08-.75.18-.53.48-1.02.89-1.41.39-.37.79-.71,1.2-1.03-.59,2.32-1.55,3.52-2.02,3.19ZM148.94,145.94c.43.44.75,1,.79,1.59.05.58-.18,1.15-.59,1.6-.41.45-.98.8-1.56,1.08-.14.07-.29.13-.46.2l-.24.1c-.06.02-.11.05-.17.07.03-.2.07-.4.1-.6.03-.18.05-.35.08-.53.5-.22.88-.57,1.1-.93.37-.6.39-1.16.37-1.5-.01-.17-.04-.3-.06-.39-.02-.09-.03-.13-.03-.13,0,0-.01.18-.08.51-.07.32-.22.79-.6,1.2-.15.17-.35.33-.59.45.1-.74.2-1.45.29-2.12.07-.52.13-1.02.19-1.5.55.19,1.06.49,1.46.91ZM144.3,145.86c.23-.48.71-.85,1.28-.97.5-.11,1.06-.09,1.59.04-.06.49-.12,1.01-.17,1.56-.08.72-.16,1.48-.27,2.27-.27.09-.56.14-.88.1-.72-.08-1.43-.62-1.67-1.54-.12-.45-.11-.99.12-1.47Z"/>
  <path class="cls-28" d="M133.19,55.16c-.56.16-1.06.52-1.36,1.01-.3.47-.39,1.04-.32,1.53.04.29.13.54.24.77-.13,0-.26.01-.39.02-.25,0-.5.01-.75.02-.19-.25-.39-.5-.62-.72-.52-.55-1.2-.98-1.95-1.16-2.25-.52-3.43.07-3.45.67.03,1.32,2.26,1.43,4.58,1.46.19.2.38.41.55.63l.31.41c.1.13.22.28.35.42.49.57,1.07,1.06,1.77,1.4.69.34,1.56.44,2.29.16.73-.27,1.28-.83,1.61-1.44.32-.6.49-1.24.53-1.87.33-.02.66-.04.96-.04.82-.1,1.49.28,1.68.8.12.39-.01.73-.19.94,0-.02.02-.05.02-.08.06-.37-.19-.71-.56-.77-.37-.06-.71.2-.77.56-.06.37.19.71.56.77.03,0,.06,0,.09,0h0s0,0,0,0c.15,0,.29-.04.4-.13.03-.01.06-.03.08-.05.14-.09.3-.24.42-.46.11-.22.19-.51.13-.84-.06-.33-.3-.67-.65-.85-.17-.1-.37-.17-.58-.19-.23-.02-.42-.02-.64-.02-.3,0-.62.02-.95.04,0-.57-.12-1.12-.34-1.62-.27-.57-.73-1.04-1.3-1.27-.56-.24-1.2-.25-1.76-.09ZM125.47,57.1c.12-.25.47-.24.7-.21.53.08,1.06.28,1.49.6.42.31.82.62,1.19.96-2.3-.15-3.62-.85-3.39-1.35ZM135.57,60.03c-.34.49-.82.89-1.37,1.03-.54.15-1.12.03-1.62-.28-.5-.31-.93-.79-1.3-1.29-.09-.12-.18-.25-.27-.4l-.13-.21s-.06-.1-.1-.15c.2,0,.4,0,.59-.01.17,0,.34-.01.52-.02.29.44.7.74,1.08.88.64.24,1.17.17,1.49.08.16-.04.28-.09.36-.12.08-.03.12-.05.12-.05,0,0-.18.02-.5.02-.31-.01-.79-.07-1.25-.36-.19-.11-.37-.28-.53-.48.72-.03,1.41-.07,2.06-.11.51-.02.99-.06,1.46-.09-.08.55-.28,1.09-.6,1.55ZM134.82,55.61c.49.14.93.52,1.15,1.04.2.46.28.99.24,1.52-.48.03-.98.07-1.51.11-.7.06-1.44.11-2.21.15-.14-.24-.23-.51-.25-.81-.05-.69.33-1.47,1.16-1.86.41-.2.92-.28,1.41-.14Z"/>
  <path class="cls-28" d="M108.13,131.69c-.8,0-1.6.28-2.19.81-.57.51-.91,1.22-1.01,1.89-.06.39-.04.76.03,1.11-.17-.04-.34-.08-.52-.13-.33-.08-.66-.17-1-.27-.15-.41-.32-.81-.54-1.19-.48-.93-1.2-1.76-2.13-2.28-2.77-1.55-4.56-1.23-4.82-.45-.46,1.75,2.43,2.75,5.48,3.69.18.34.34.69.48,1.05l.25.66c.08.22.18.45.3.69.42.94,1.01,1.81,1.8,2.52.78.72,1.89,1.18,2.96,1.08,1.07-.08,2-.6,2.68-1.28.65-.67,1.13-1.44,1.42-2.26.45.1.88.2,1.29.31,1.11.19,1.86.94,1.91,1.7,0,.56-.3.95-.62,1.17.02-.03.04-.06.05-.09.22-.46.02-1.01-.44-1.23-.46-.22-1.01-.01-1.23.45-.21.46-.02,1.01.45,1.23.04.02.08.03.11.04h0s0,0,.01,0c.19.06.4.05.58-.01.04,0,.08-.02.13-.03.23-.07.49-.2.73-.45.24-.25.44-.6.49-1.06.05-.46-.14-.99-.54-1.37-.19-.19-.43-.37-.7-.48-.29-.12-.55-.19-.84-.27-.4-.1-.83-.21-1.27-.31.21-.75.27-1.52.18-2.27-.14-.85-.57-1.66-1.23-2.18-.65-.54-1.48-.79-2.29-.8ZM97.2,131.29c.25-.28.72-.13,1,0,.68.31,1.29.77,1.74,1.36.44.57.84,1.13,1.21,1.73-2.98-1.08-4.45-2.51-3.96-3.08ZM109.41,139.04c-.64.51-1.42.86-2.2.84-.78-.02-1.49-.39-2.04-.99-.54-.6-.93-1.39-1.22-2.2-.07-.19-.14-.4-.21-.64l-.1-.32c-.02-.08-.05-.16-.07-.24.26.07.53.14.78.21.23.06.46.12.69.18.22.69.64,1.24,1.08,1.58.75.57,1.48.67,1.93.68.23,0,.4,0,.52-.03.12-.02.18-.03.18-.03,0,0-.24-.04-.66-.17-.41-.14-1.01-.39-1.51-.95-.21-.22-.38-.51-.51-.83.96.23,1.89.45,2.77.65.68.16,1.33.31,1.95.44-.32.7-.79,1.34-1.39,1.81ZM110.11,132.91c.6.37,1.03,1.05,1.11,1.82.08.68-.01,1.41-.26,2.1-.65-.14-1.32-.29-2.03-.43-.94-.19-1.94-.41-2.97-.65-.09-.37-.11-.76-.02-1.17.2-.94,1-1.82,2.25-2.01.62-.1,1.32-.01,1.92.35Z"/>
  <path class="cls-6" d="M49.04,56.09l.14-.26-4.58-2.52c.3-.15.53-.51.57-.96.05-.61-.28-1.14-.73-1.18-.46-.04-.87.42-.92,1.03-.04.47.14.89.44,1.08h0s5.09,2.81,5.09,2.81Z"/>
  <path class="cls-30" d="M270.24,116.94l-.39-.35-6.14,6.82c-.14-.57-.67-1.11-1.41-1.36-1.02-.33-2.05.02-2.31.78-.25.77.38,1.66,1.4,1.99.79.26,1.58.11,2.02-.32h.01s6.83-7.57,6.83-7.57Z"/>
  <path class="cls-35" d="M162.49,6.58l-.05.3,5.3.91c-.24.25-.34.68-.23,1.12.15.61.65,1.01,1.11.9.46-.12.7-.7.55-1.32-.12-.47-.44-.82-.79-.9h0s-5.88-1.02-5.88-1.02Z"/>
  <path class="cls-54" d="M261.91,97.08l.52.08,1.34-9.13c.43.4,1.18.56,1.94.35,1.04-.29,1.71-1.16,1.49-1.94-.22-.78-1.24-1.18-2.28-.89-.8.22-1.38.79-1.51,1.39h-.02s-1.49,10.13-1.49,10.13Z"/>
  <path class="cls-12" d="M38.85,148.71l-.31-.32-5.65,5.36c-.08-.49-.49-.99-1.1-1.24-.84-.35-1.74-.12-2,.51-.26.63.21,1.43,1.05,1.78.65.27,1.33.2,1.73-.14h0s6.28-5.94,6.28-5.94Z"/>
  <path class="cls-8" d="M241.57,150.02l.41.19,3.33-7.24c.26.44.84.75,1.52.76.93.01,1.7-.55,1.71-1.25,0-.7-.74-1.28-1.68-1.29-.72-.01-1.34.32-1.59.79h-.01s-3.69,8.04-3.69,8.04Z"/>
  <path class="cls-33" d="M22.16,163.93l3.55-6.44-1.39-1.24h0s-4.58-4.08-4.58-4.08c.38-.18.72-.57.88-1.08.27-.83-.02-1.67-.64-1.87-.62-.2-1.34.31-1.61,1.14-.19.59-.1,1.18.2,1.55h0s.02.02.02.02c.07.08.14.14.22.2l5.22,4.67-2.91,5.39-4.61-4.12c.38-.18.72-.57.89-1.08.27-.83-.02-1.67-.64-1.87-.62-.2-1.35.31-1.61,1.14-.22.69-.06,1.38.36,1.71h0s5.33,4.76,5.33,4.76h0s1.34,1.2,1.34,1.2Z"/>
  <path class="cls-42" d="M181.41,123.75l3.78,4.99,1.45-.65h0s4.76-2.15,4.76-2.15c0,.36.19.75.53,1.06.55.5,1.3.56,1.68.15.37-.42.22-1.15-.33-1.65-.4-.35-.89-.48-1.27-.38h0s-.02,0-.02,0c-.08.02-.16.06-.23.1l-5.44,2.45-3.19-4.13,4.8-2.16c0,.36.19.76.53,1.07.55.5,1.3.56,1.68.15.37-.42.22-1.15-.33-1.65-.46-.41-1.06-.52-1.46-.31h0s-5.55,2.49-5.55,2.49h0s-1.39.62-1.39.62Z"/>
  <path class="cls-36" d="M35.47,110.61l.33-3.87-.94-.3h0s-3.09-.98-3.09-.98c.14-.17.22-.43.19-.71-.05-.46-.37-.8-.71-.76-.34.04-.58.44-.53.9.04.33.21.59.43.7h0s.01,0,.01,0c.05.02.1.04.15.05l3.52,1.12-.24,3.23-3.11-.99c.15-.17.23-.43.2-.71-.05-.46-.37-.8-.71-.76-.34.04-.58.44-.53.9.04.38.27.68.54.75h0s3.59,1.15,3.59,1.15h0s.9.29.9.29Z"/>
  <path class="cls-53" d="M256.98,86.72l1.85-3.37-.73-.65h0s-2.4-2.13-2.4-2.13c.2-.09.37-.3.46-.56.14-.43-.01-.87-.34-.97-.33-.1-.7.16-.84.6-.1.31-.05.62.11.81h0s.01.01.01.01c.03.04.07.08.12.1l2.74,2.43-1.51,2.82-2.42-2.14c.2-.09.38-.3.46-.57.14-.43-.01-.87-.34-.98-.33-.1-.7.16-.84.6-.12.36-.03.72.19.89h0s2.79,2.48,2.79,2.48h0s.7.62.7.62Z"/>
  <path class="cls-11" d="M98.52,17.37l3.78-.49.09-.96h0s.31-3.17.31-3.17c.19.1.46.13.72.04.43-.14.69-.52.58-.84-.11-.32-.54-.47-.97-.33-.31.1-.52.32-.59.56h0s0,.01,0,.01c-.01.05-.02.1-.01.15l-.35,3.62-3.15.44.31-3.19c.19.11.46.13.73.04.43-.14.69-.52.59-.84-.11-.32-.54-.47-.97-.33-.36.12-.6.4-.6.68h0s-.36,3.69-.36,3.69h0s-.09.93-.09.93Z"/>
  <path class="cls-2" d="M127.34,37.08l3.19,2.91.9-.62h0s2.96-2.05,2.96-2.05c.05.24.22.49.49.65.44.27.95.22,1.15-.11.2-.33,0-.81-.43-1.08-.31-.19-.66-.22-.91-.1h0s-.01,0-.01,0c-.05.03-.1.06-.14.1l-3.38,2.34-2.68-2.4,2.98-2.07c.05.24.22.49.5.66.44.27.95.22,1.15-.11.2-.33,0-.81-.43-1.08-.36-.22-.78-.22-1.03-.03h0s-3.45,2.39-3.45,2.39h0s-.87.6-.87.6Z"/>
  <path class="cls-17" d="M199.07,22.55l2-3.45-.74-.69h0s-2.43-2.26-2.43-2.26c.21-.09.39-.3.49-.57.15-.45,0-.9-.33-1.02-.34-.12-.73.15-.89.6-.11.32-.06.64.09.84h0s.01.01.01.01c.03.04.07.08.12.11l2.78,2.58-1.63,2.89-2.45-2.28c.21-.09.4-.3.49-.58.15-.45,0-.9-.33-1.02-.34-.12-.73.15-.89.6-.13.37-.05.75.18.93h0s2.83,2.64,2.83,2.64h0s.71.66.71.66Z"/>
  <path class="cls-29" d="M256.96,95.16l.72-3.4c-.09,0-1.17.06-3.57.17.07-.18.05-.42-.06-.64-.18-.36-.55-.55-.82-.41-.27.14-.34.54-.16.9.16.32.46.5.72.45l3.02-.14-.56,2.82-3.17.15c.07-.18.05-.42-.06-.64-.18-.36-.55-.55-.82-.41-.27.14-.34.54-.16.9.16.32.47.5.73.44,4.22-.2,3.58-.17,4.19-.18Z"/>
  <path class="cls-10" d="M106.41,18.75l-4.36-3.01c-.05.14-.6,1.68-1.85,5.12-.22-.2-.56-.32-.94-.3-.62.04-1.09.45-1.06.92.03.46.56.8,1.18.76.54-.04.97-.36,1.05-.75l1.57-4.34,3.63,2.44-1.65,4.55c-.22-.2-.56-.32-.94-.29-.62.04-1.09.45-1.06.92.03.46.56.8,1.17.76.55-.04.98-.37,1.05-.76,2.2-6.05,1.86-5.14,2.2-6.01Z"/>
  <path class="cls-21" d="M15.12,119.76l-.69,4.84c.13-.01,1.64-.2,4.99-.59-.08.26-.03.6.14.9.29.49.82.71,1.19.5.37-.22.43-.79.14-1.28-.25-.43-.7-.66-1.05-.56l-4.23.49.51-4.01,4.44-.52c-.08.26-.03.59.14.89.29.49.82.71,1.19.5.37-.22.43-.79.14-1.28-.26-.44-.71-.66-1.06-.55-5.9.69-5.02.59-5.87.66Z"/>
  <path class="cls-3" d="M222.83,38.78l4.27,2.75c.04-.13.53-1.63,1.61-4.97.21.19.55.29.91.25.59-.06,1.03-.47.99-.91-.05-.44-.56-.75-1.15-.69-.52.05-.92.37-.98.75l-1.37,4.21-3.56-2.22,1.44-4.41c.21.19.55.29.91.25.59-.06,1.03-.47.99-.91-.04-.44-.56-.75-1.15-.69-.52.05-.93.38-.98.77-1.91,5.87-1.62,4.99-1.92,5.83Z"/>
  <path class="cls-46" d="M57.21,115.29l-4.83-3.13c-.05.15-.6,1.84-1.85,5.62-.24-.21-.62-.33-1.03-.29-.67.07-1.17.53-1.12,1.03.05.5.63.85,1.3.79.59-.06,1.04-.42,1.11-.84l1.57-4.76,4.02,2.53-1.65,4.99c-.24-.21-.62-.33-1.03-.29-.67.07-1.17.53-1.12,1.03.05.5.63.85,1.3.79.59-.06,1.05-.43,1.11-.86,2.19-6.64,1.86-5.64,2.2-6.59Z"/>
  <path class="cls-4" d="M261.21,141.25l4.1-4.38c-.14-.08-1.78-.96-5.43-2.93.26-.21.46-.58.49-1,.05-.7-.33-1.3-.85-1.34-.52-.04-.99.49-1.05,1.19-.05.61.24,1.15.66,1.3l4.6,2.49-3.34,3.67-4.82-2.61c.26-.21.45-.57.48-1,.05-.7-.33-1.3-.85-1.34-.52-.04-.99.49-1.05,1.19-.05.62.25,1.16.68,1.3,6.42,3.47,5.46,2.94,6.36,3.47Z"/>
  <path class="cls-27" d="M176.47,10.66l-3.39,4.3.87,1.08h0s2.86,3.56,2.86,3.56c-.3.08-.59.33-.78.68-.3.58-.19,1.23.25,1.45.43.22,1.03-.06,1.32-.64.21-.41.21-.86.04-1.16h0s-.01-.02-.01-.02c-.04-.06-.08-.12-.14-.17l-2.8-3.48,2.81-3.59,2.4,2.99c-.3.08-.6.33-.78.69-.3.58-.19,1.23.24,1.45.43.22,1.03-.06,1.32-.64.25-.48.21-1.01-.06-1.3h0s-3.33-4.14-3.33-4.14h0s-.84-1.04-.84-1.04ZM177.21,12.31l-2.81,3.59-.18-.22,2.79-3.61.19.24Z"/>
  <path class="cls-7" d="M214.5,29.38l-3.81,1.46.15,1.03h0s.48,3.37.48,3.37c-.22-.06-.51-.02-.76.14-.41.26-.59.71-.4,1.02.19.31.68.35,1.09.09.29-.18.46-.47.47-.73h0s0-.02,0-.02c0-.06,0-.11-.02-.16l-.47-3.3,3.16-1.22.4,2.83c-.23-.06-.51-.02-.76.14-.41.26-.59.71-.4,1.02.19.31.68.35,1.09.09.34-.21.52-.57.46-.86h0s-.56-3.92-.56-3.92h0s-.14-.99-.14-.99ZM214.35,30.72l-3.16,1.22-.03-.21,3.16-1.24.03.23Z"/>
  <path class="cls-22" d="M232.6,62.97l-.2-5.37-1.34-.26h0s-4.4-.84-4.4-.84c.17-.25.24-.62.15-1-.15-.62-.64-1.04-1.11-.93-.47.11-.73.7-.58,1.32.1.44.39.78.71.89h0s.02,0,.02,0c.07.02.14.04.21.04l4.31.82.18,4.47-3.69-.7c.17-.25.24-.63.15-1.01-.14-.62-.64-1.04-1.11-.93-.47.11-.73.7-.58,1.32.12.52.48.89.87.93h0s5.12.98,5.12.98h0s1.29.25,1.29.25ZM230.99,62.21l-.18-4.47.27.05.21,4.47-.3-.06Z"/>
  <path class="cls-18" d="M262.26,153.6l-4.61,4.13.76,1.37h0s2.5,4.51,2.5,4.51c-.35.04-.73.25-1,.61-.44.59-.45,1.33,0,1.66.44.33,1.15.13,1.6-.46.32-.42.4-.91.27-1.28h0s-.01-.02-.01-.02c-.03-.08-.07-.15-.12-.22l-2.44-4.42,3.82-3.45,2.1,3.79c-.35.03-.73.25-1.01.61-.44.59-.45,1.33,0,1.66.44.33,1.15.13,1.6-.46.37-.49.43-1.08.19-1.46h0s-2.91-5.26-2.91-5.26h0s-.73-1.32-.73-1.32ZM262.77,155.58l-3.82,3.45-.15-.28,3.81-3.47.17.31Z"/>
  <path class="cls-44" d="M138.32,13.97c.22.29.72.29,1.11,0,.34-.26.49-.66.37-.95l-1.05-4.41-.23.06.97,4.06c-.25-.09-.58-.03-.86.18-.39.3-.53.78-.3,1.07Z"/>
  <path class="cls-19" d="M166.57,79.48c.48-.24.61-.95.29-1.6-.28-.56-.81-.88-1.27-.79l-6.6.31.02.35,6.08-.29c-.2.33-.2.83.03,1.28.32.64.97.96,1.45.72Z"/>
  <path class="cls-45" d="M135.02,7.43c.28-.2.29-.65.03-1.02-.23-.32-.59-.47-.86-.37l-4.08.81.04.22,3.76-.75c-.09.23-.05.53.14.8.26.37.69.51.97.31Z"/>
  <path class="cls-37" d="M39.88,67.94c-.47-.29-1.16-.02-1.55.61-.34.55-.33,1.19,0,1.53l3.82,5.6.3-.2-3.52-5.16c.4,0,.83-.27,1.11-.72.39-.63.32-1.37-.15-1.66Z"/>
  <path class="cls-52" d="M54.31,66.32c-.02.11.04.21.15.24.11.02.21-.04.24-.15.19-.82,1.09-.85,1.99-.82h.18c.41.02.7,0,.93-.05l-3.43,5.09c-.17-.4-.61-.74-1.18-.84-.79-.14-1.52.23-1.63.82-.11.6.45,1.19,1.25,1.33.67.12,1.3-.13,1.54-.57l4.2-6.25c.06-.09.04-.21-.05-.27-.09-.06-.21-.04-.27.05h0c-.2.18-.44.31-1.34.29h-.17c-.73-.03-2.1-.08-2.38,1.12Z"/>
  <path class="cls-50" d="M87.72,74.49c.11-.04.17-.16.13-.27-.04-.11-.16-.17-.27-.13-.87.3-1.43-.51-1.92-1.37l-.1-.17c-.23-.38-.42-.64-.59-.83l6.72.21c-.27.39-.33,1-.09,1.59.33.82,1.1,1.28,1.71,1.03.61-.25.84-1.12.51-1.93-.28-.69-.88-1.13-1.42-1.09l-8.25-.26c-.12,0-.22.09-.22.21,0,.12.09.22.21.22h.02c.28.09.53.23,1.04,1.08l.1.16c.4.7,1.16,1.99,2.43,1.56Z"/>
  <path class="cls-48" d="M221.21,86.96c.02.12.14.2.26.18.12-.02.2-.14.18-.26-.18-.93.73-1.38,1.67-1.76l.19-.08c.42-.18.72-.33.93-.49l-1.18,6.82c-.36-.34-.97-.48-1.6-.32-.88.22-1.46.94-1.3,1.6.17.66,1.02,1.02,1.9.8.75-.19,1.28-.73,1.32-1.29l1.44-8.37c.02-.12-.06-.24-.18-.26-.12-.02-.24.06-.26.18v.02c-.13.27-.31.51-1.25.9l-.18.07c-.77.31-2.2.89-1.94,2.26Z"/>
  <path class="cls-13" d="M246.91,59.16c.04.13.17.2.3.16.13-.04.2-.17.16-.3-.29-.99.64-1.58,1.62-2.1l.19-.1c.44-.24.74-.44.96-.63l-.54,7.54c-.43-.33-1.11-.42-1.78-.17-.93.34-1.48,1.18-1.23,1.88.25.7,1.22.99,2.15.66.79-.29,1.31-.93,1.29-1.55l.66-9.25c0-.13-.09-.25-.22-.26-.13,0-.25.09-.26.22v.02c-.11.31-.28.59-1.26,1.12l-.19.1c-.8.42-2.29,1.21-1.86,2.66Z"/>
  <path class="cls-26" d="M67.69,40.72c-.11,0-.2.08-.2.18,0,.11.08.2.18.2.82.04,1.02.9,1.15,1.77l.03.17c.06.39.14.67.22.89l-5.53-2.39c.36-.23.6-.72.6-1.29,0-.79-.5-1.43-1.09-1.42-.59,0-1.07.65-1.06,1.44,0,.67.36,1.23.83,1.38l6.79,2.93c.1.04.21,0,.25-.1.04-.1,0-.21-.1-.25h-.01c-.2-.17-.37-.37-.51-1.24l-.03-.17c-.11-.71-.31-2.04-1.51-2.1Z"/>
  <path class="cls-5" d="M29.28,83.73c-.1,0-.19.08-.2.18,0,.1.08.19.18.2.81.04,1,.88,1.13,1.74l.03.17c.06.39.13.66.21.87l-5.42-2.35c.35-.23.59-.71.59-1.27,0-.78-.48-1.4-1.07-1.4-.58,0-1.05.64-1.04,1.41,0,.66.35,1.21.81,1.36l6.66,2.89c.1.04.21,0,.25-.1.04-.1,0-.21-.1-.25h-.01c-.2-.17-.36-.37-.5-1.22l-.03-.16c-.1-.7-.3-2-1.48-2.06Z"/>
  <path class="cls-14" d="M71.18,27.81c0,.11.07.2.18.21.11,0,.2-.07.21-.18.08-.84.96-1,1.86-1.1l.18-.02c.41-.05.7-.11.92-.19l-2.69,5.54c-.22-.38-.71-.65-1.29-.67-.81-.03-1.48.44-1.5,1.05-.02.61.62,1.12,1.43,1.15.69.02,1.27-.31,1.45-.78l3.3-6.8c.05-.1,0-.22-.09-.26-.1-.05-.22,0-.26.09h0c-.18.21-.39.37-1.29.48l-.17.02c-.73.08-2.1.22-2.21,1.45Z"/>
  <g>
    <path class="cls-24" d="M247.23,98.26c.04-.34-.2-.66-.55-.7-.34-.04-.66.2-.7.55-.04.34.2.66.55.7.34.04.66-.2.7-.55Z"/>
    <path class="cls-39" d="M248.63,98.43c-.04.34.2.66.55.7.34.04.66-.2.7-.55.04-.34-.2-.66-.55-.7s-.66.2-.7.55Z"/>
    <path class="cls-55" d="M244.41,100.32c-.34.39-.56.85-.69,1.31-.13.46-.15.92-.09,1.35.06.43.21.82.41,1.13.98,1.51,2.69,1.24,2.84.02.08-.64-.38-1.22-1.02-1.3-.45-.05-.86.15-1.1.5-.08-.14-.15-.31-.19-.51-.13-.58-.02-1.37.45-2.01.23-.32.55-.59.93-.76.38-.18.82-.26,1.27-.25.46,0,.91.1,1.36.22.44.12.86.3,1.25.51.78.42,1.41.97,1.9,1.49.49.53.81,1.03,1.02,1.39.21.36.3.58.3.58.02.05.08.07.12.05.05-.02.08-.07.06-.13h0s-.09-.24-.29-.61c-.2-.38-.53-.9-1-1.47-.47-.57-1.1-1.18-1.91-1.66-.4-.24-.84-.45-1.31-.61-.47-.16-.97-.27-1.47-.32-.52-.04-1.06,0-1.56.2-.5.18-.95.51-1.28.9Z"/>
  </g>
  <g>
    <path class="cls-1" d="M241.01,55.56c.32.02.61-.22.63-.54.02-.32-.22-.6-.54-.63s-.61.22-.63.54c-.02.32.22.61.54.63Z"/>
    <path class="cls-34" d="M240.91,56.88c-.32-.02-.61.22-.63.54-.02.32.22.61.54.63.32.02.6-.22.63-.54.02-.32-.22-.6-.54-.63Z"/>
    <path class="cls-16" d="M238.96,53.01c-.38-.3-.82-.49-1.25-.59-.43-.1-.87-.1-1.27-.03-.4.07-.76.23-1.04.43-1.37.99-1.05,2.57.11,2.66.6.05,1.13-.41,1.18-1.01.03-.42-.18-.8-.52-1.01.13-.08.28-.16.47-.2.53-.15,1.28-.08,1.9.33.31.2.57.49.75.84.18.35.27.76.29,1.18.01.43-.05.86-.15,1.28-.1.42-.24.82-.42,1.19-.36.75-.84,1.36-1.32,1.84-.47.48-.93.8-1.26,1.02-.33.21-.53.31-.53.31-.04.02-.06.07-.04.12.02.05.07.07.12.05h0s.21-.09.56-.3c.35-.21.82-.53,1.34-1,.51-.46,1.06-1.08,1.48-1.86.21-.39.39-.81.52-1.25.13-.44.21-.92.24-1.39.02-.48-.05-.99-.25-1.45-.19-.46-.52-.87-.9-1.16Z"/>
  </g>
  <g>
    <path class="cls-15" d="M89.15,37.24c-.24-.02-.45.17-.47.41-.02.24.17.45.41.47.24.02.45-.17.47-.41.02-.24-.17-.46-.41-.47Z"/>
    <path class="cls-9" d="M89.22,36.25c.24.02.45-.17.47-.41.02-.24-.17-.45-.41-.47s-.45.17-.47.41c-.02.24.17.45.41.47Z"/>
    <path class="cls-20" d="M90.71,39.15c.29.22.62.36.95.44.33.07.65.07.95.01.3-.06.57-.18.78-.33,1.03-.75.77-1.94-.1-2-.45-.03-.85.31-.88.77-.02.32.14.6.39.76-.1.06-.21.12-.35.16-.4.11-.97.07-1.43-.24-.23-.15-.43-.37-.57-.63-.14-.26-.21-.57-.23-.89-.01-.32.03-.65.1-.97.07-.32.18-.62.31-.9.26-.56.63-1.03.98-1.39.35-.36.7-.61.94-.77.25-.16.4-.23.4-.23.03-.02.05-.06.03-.09-.02-.03-.06-.05-.09-.03h0s-.16.07-.42.23c-.26.16-.62.41-1,.76-.38.35-.79.82-1.1,1.41-.16.29-.29.61-.38.95-.09.33-.15.69-.17,1.05-.01.36.05.74.2,1.09.15.35.39.65.68.87Z"/>
  </g>
  <g>
    <path class="cls-49" d="M21.81,137.09c-.05-.24-.29-.39-.53-.34-.24.05-.39.29-.34.53.05.24.29.39.53.34.24-.05.39-.29.34-.53Z"/>
    <path class="cls-32" d="M22.78,136.88c.05.24.29.39.53.34.24-.05.39-.29.34-.53s-.29-.39-.53-.34-.39.29-.34.53Z"/>
    <path class="cls-51" d="M20.4,139.12c-.13.34-.18.7-.16,1.03.02.34.11.65.25.92.14.27.33.5.54.66,1.01.78,2.08.21,1.9-.64-.1-.45-.53-.73-.98-.63-.31.07-.54.3-.62.59-.09-.08-.17-.17-.25-.29-.22-.35-.33-.91-.16-1.44.08-.26.23-.52.45-.72.21-.21.49-.36.79-.46.31-.1.63-.15.96-.17.32-.02.65,0,.95.05.61.1,1.17.32,1.61.56.45.24.78.5,1,.69.22.19.34.32.34.32.02.03.07.03.1,0,.03-.02.03-.07,0-.1h0s-.11-.14-.34-.34c-.22-.21-.56-.48-1-.75-.44-.27-1.01-.53-1.66-.67-.32-.07-.67-.11-1.02-.11-.35,0-.71.04-1.06.13-.35.09-.7.25-1,.49-.29.24-.52.56-.65.9Z"/>
  </g>
  <g>
    <path class="cls-43" d="M189.39,44.46c.18.2.49.22.69.04.2-.18.22-.49.04-.69-.18-.2-.49-.22-.69-.04-.2.18-.22.49-.04.69Z"/>
    <path class="cls-40" d="M188.58,45.19c-.18-.2-.49-.22-.69-.04s-.22.49-.04.69c.18.2.49.22.69.04s.22-.49.04-.69Z"/>
    <path class="cls-41" d="M189.62,41.73c-.06-.4-.21-.77-.42-1.08-.21-.31-.46-.56-.75-.75-.28-.18-.59-.3-.88-.34-1.4-.2-2.12.95-1.47,1.67.34.37.91.41,1.29.07.26-.24.35-.59.27-.91.13.02.26.07.4.15.41.22.82.69.95,1.29.07.3.06.63-.03.94-.09.32-.27.62-.51.88-.24.27-.53.49-.83.69-.3.2-.62.36-.94.48-.64.24-1.3.34-1.85.35-.56.02-1.02-.05-1.35-.11-.32-.06-.5-.12-.5-.12-.04-.01-.08,0-.09.05-.01.04,0,.08.04.1h0s.18.07.51.14c.33.08.8.15,1.38.17.58.01,1.26-.05,1.96-.27.35-.11.7-.26,1.03-.46.33-.19.66-.43.95-.7.29-.28.54-.63.68-1.02.15-.39.19-.82.13-1.22Z"/>
  </g>
  <path class="cls-25" d="M148.34,19.6c-.17-.41-.49-.75-.89-.92-.38-.18-.82-.19-1.18-.09-.21.06-.39.15-.55.26-.02-.1-.03-.19-.05-.29-.03-.18-.06-.37-.09-.56.17-.16.34-.34.48-.53.36-.45.62-1,.68-1.58.17-1.74-.39-2.57-.84-2.53-.98.15-.85,1.84-.65,3.58-.13.16-.27.33-.42.47l-.27.27c-.09.09-.19.19-.28.3-.38.42-.69.91-.87,1.47-.19.55-.17,1.21.11,1.73.28.52.75.88,1.24,1.07.48.18.98.25,1.45.21.05.25.09.49.13.72.15.6-.06,1.15-.43,1.34-.28.13-.55.06-.72-.05.02,0,.04,0,.06,0,.28,0,.52-.22.52-.5,0-.28-.22-.51-.5-.52-.28,0-.51.22-.52.5,0,.02,0,.04,0,.07h0s0,0,0,0c.01.11.06.21.13.29.01.02.03.04.04.06.08.1.21.2.39.27.18.06.4.09.64.01.24-.08.47-.29.57-.57.06-.14.09-.3.09-.46,0-.17-.03-.32-.05-.48-.04-.23-.08-.46-.13-.71.42-.06.83-.2,1.19-.41.4-.26.71-.65.82-1.1.13-.45.07-.92-.11-1.33ZM146.13,14c.2.06.22.33.22.51,0,.41-.1.82-.3,1.18-.19.35-.38.67-.6.99-.12-1.74.28-2.8.68-2.68ZM144.93,21.87c-.4-.21-.75-.53-.91-.92-.16-.39-.13-.84.05-1.25.18-.4.5-.78.84-1.1.08-.08.17-.16.27-.24l.14-.12s.07-.06.1-.09c.02.15.05.3.07.44.02.13.04.26.06.39-.3.26-.48.6-.56.9-.12.5,0,.89.09,1.12.05.12.09.2.13.26.03.06.05.08.05.08,0,0-.03-.13-.06-.37-.02-.24-.03-.6.15-.97.07-.15.17-.31.31-.44.1.54.19,1.05.28,1.54.07.38.14.74.21,1.08-.42,0-.85-.1-1.22-.3ZM148.17,20.87c-.05.38-.3.75-.67.96-.32.19-.71.3-1.11.33-.07-.36-.15-.73-.23-1.12-.11-.52-.22-1.07-.33-1.64.17-.13.36-.22.59-.27.52-.11,1.14.1,1.51.69.19.29.3.66.25,1.05Z"/>
  <path class="cls-47" d="M22.98,103.63c.04.47.25.91.59,1.22.33.3.76.46,1.15.47.23.01.44-.02.64-.08-.01.1-.03.2-.04.31-.03.2-.06.39-.1.59-.23.11-.45.23-.66.38-.51.33-.95.8-1.2,1.36-.74,1.69-.45,2.71.02,2.81,1.04.17,1.45-1.56,1.82-3.38.19-.12.38-.24.58-.34l.36-.18c.12-.06.25-.13.38-.21.52-.3.99-.69,1.36-1.19.37-.49.57-1.16.46-1.77-.11-.62-.46-1.12-.89-1.48-.42-.34-.9-.57-1.39-.69.03-.27.07-.52.11-.76.05-.66.44-1.13.87-1.2.32-.04.57.12.71.29-.02,0-.04-.02-.06-.03-.28-.1-.59.05-.69.33-.1.28.05.59.33.69.28.1.59-.05.68-.33,0-.02.01-.05.02-.07h0s0,0,0,0c.02-.12,0-.23-.04-.34,0-.02-.02-.05-.03-.07-.05-.13-.15-.27-.3-.4-.16-.12-.37-.22-.64-.22-.27,0-.57.14-.76.39-.1.12-.19.27-.24.43-.05.18-.08.33-.11.5-.04.24-.07.49-.1.75-.44-.08-.9-.07-1.33.03-.48.13-.93.42-1.19.84-.27.41-.37.9-.33,1.37ZM23.37,109.98c-.18-.13-.12-.41-.06-.58.14-.41.37-.79.69-1.09.3-.29.61-.55.93-.8-.45,1.79-1.2,2.72-1.56,2.46ZM27.15,102.47c.33.34.58.77.61,1.23.04.45-.14.88-.46,1.23-.32.35-.75.61-1.2.83-.11.05-.22.1-.36.16l-.18.07s-.09.03-.13.05c.03-.16.05-.31.08-.47.02-.14.04-.27.06-.41.39-.17.68-.44.85-.72.29-.47.3-.89.28-1.16-.01-.13-.03-.23-.05-.3-.02-.07-.02-.1-.02-.1,0,0,0,.14-.06.39-.06.24-.17.61-.46.93-.12.13-.27.25-.45.34.08-.57.15-1.12.22-1.64.05-.4.1-.79.15-1.16.42.14.82.38,1.13.7ZM23.57,102.42c.18-.37.55-.65.99-.75.39-.09.81-.07,1.23.03-.05.38-.09.78-.13,1.2-.06.55-.13,1.14-.21,1.75-.21.07-.44.11-.68.08-.55-.06-1.11-.47-1.29-1.19-.1-.35-.08-.76.1-1.13Z"/>
  <path class="cls-31" d="M195.93,26.26c-.62,0-1.24.21-1.69.62-.44.39-.7.94-.78,1.46-.05.3-.03.59.02.86-.13-.03-.26-.06-.4-.1-.25-.06-.51-.13-.77-.21-.11-.31-.25-.62-.42-.92-.37-.71-.93-1.36-1.64-1.76-2.14-1.2-3.52-.95-3.72-.35-.36,1.35,1.88,2.12,4.23,2.85.14.26.27.53.37.81l.19.51c.06.17.14.35.23.53.33.73.78,1.4,1.39,1.95.6.55,1.46.91,2.28.84.83-.06,1.55-.47,2.07-.99.5-.52.87-1.11,1.09-1.74.35.08.68.16.99.24.86.15,1.44.72,1.47,1.31,0,.43-.23.74-.48.9.01-.02.03-.05.04-.07.17-.36.01-.78-.34-.95-.36-.17-.78-.01-.95.35-.17.36-.01.78.35.95.03.01.06.02.09.03h0s0,0,0,0c.15.05.31.04.45,0,.03,0,.07-.01.1-.02.17-.05.38-.16.57-.34.18-.19.34-.47.38-.82.04-.35-.11-.77-.41-1.06-.15-.15-.33-.28-.54-.37-.22-.09-.42-.14-.65-.21-.31-.08-.64-.16-.98-.24.16-.58.21-1.18.14-1.76-.1-.66-.44-1.28-.95-1.68-.5-.41-1.14-.61-1.76-.61ZM187.5,25.94c.19-.22.55-.1.77,0,.52.24.99.6,1.35,1.05.34.44.65.87.93,1.33-2.3-.83-3.44-1.94-3.05-2.38ZM196.92,31.92c-.49.4-1.1.66-1.7.65-.6-.01-1.15-.3-1.57-.77-.42-.46-.71-1.08-.94-1.7-.05-.15-.11-.31-.16-.49l-.07-.25c-.02-.06-.03-.12-.05-.18.2.05.41.11.61.16.18.05.35.09.53.14.17.53.5.96.84,1.22.58.44,1.14.51,1.49.52.18,0,.31,0,.4-.02.09-.01.14-.02.14-.02,0,0-.19-.03-.51-.13-.32-.11-.78-.3-1.17-.73-.16-.17-.3-.39-.39-.64.74.18,1.46.35,2.13.5.52.13,1.03.24,1.51.34-.25.54-.61,1.03-1.07,1.4ZM197.46,27.2c.46.28.79.81.86,1.4.06.52-.01,1.09-.2,1.62-.5-.11-1.02-.22-1.57-.33-.73-.15-1.5-.31-2.29-.5-.07-.28-.08-.59-.02-.91.15-.72.77-1.4,1.74-1.55.48-.08,1.02-.01,1.48.27Z"/>
  <path class="cls-38" d="M269.5,145.83c-.21.34-.29.75-.21,1.13.07.37.28.7.55.91.15.13.31.21.48.27-.06.06-.12.12-.19.19-.12.12-.24.24-.37.35-.21-.04-.42-.07-.64-.07-.51-.03-1.05.06-1.51.32-1.36.78-1.68,1.62-1.42,1.93.62.64,1.78-.33,2.96-1.38.19.01.38.03.57.06l.34.06c.11.02.24.04.37.05.51.06,1.03.03,1.53-.12.5-.15.98-.5,1.21-.98.24-.47.25-1,.14-1.46-.12-.45-.32-.84-.6-1.18.16-.16.31-.32.46-.47.36-.42.87-.55,1.21-.37.24.14.33.37.34.56,0-.02-.01-.03-.03-.05-.14-.21-.43-.27-.63-.13-.21.14-.26.43-.12.63.14.21.42.26.63.12.02-.01.03-.02.05-.04h0s0,0,0,0c.07-.07.12-.16.14-.25,0-.02.01-.04.02-.06.03-.11.04-.26,0-.42-.05-.16-.14-.34-.33-.48-.18-.14-.46-.19-.72-.12-.13.03-.26.09-.38.17-.12.09-.22.19-.33.29-.15.14-.3.3-.45.46-.26-.28-.58-.5-.92-.66-.4-.16-.85-.18-1.24-.03-.39.14-.71.43-.92.77ZM266.55,150.36c-.06-.18.13-.34.25-.43.3-.21.65-.35,1.02-.39.35-.04.69-.07,1.04-.07-1.22.99-2.2,1.25-2.31.89ZM272.94,147.15c.05.4,0,.82-.21,1.15-.2.32-.55.53-.94.61-.39.07-.83.04-1.24-.04-.1-.02-.2-.04-.32-.07l-.16-.04s-.08-.02-.12-.03c.1-.09.19-.19.29-.28.08-.08.17-.16.25-.25.35.08.69.04.95-.06.43-.17.66-.46.78-.65.06-.1.1-.17.12-.23.02-.05.03-.08.03-.08,0,0-.08.09-.24.24-.16.14-.42.33-.79.4-.15.03-.31.03-.48,0,.34-.35.67-.69.98-1.01.24-.25.47-.49.69-.71.22.31.37.67.41,1.05ZM270.52,145.3c.31-.16.71-.17,1.05,0,.31.14.59.36.82.64-.22.24-.46.49-.7.75-.32.35-.67.72-1.03,1.09-.18-.06-.35-.15-.5-.29-.35-.32-.51-.89-.28-1.47.11-.29.33-.56.64-.72Z"/>
  <path class="cls-23" d="M273.21,118.61c-.41-.15-.87-.16-1.27,0-.39.15-.69.46-.87.78-.1.19-.16.38-.19.57-.08-.05-.16-.11-.24-.16-.15-.1-.31-.21-.46-.32,0-.24-.01-.47-.06-.71-.07-.56-.29-1.13-.66-1.57-1.13-1.31-2.11-1.48-2.38-1.12-.56.81.74,1.86,2.12,2.91.03.21.05.42.05.63v.38c0,.13.02.26.03.41.04.56.18,1.12.46,1.63.27.51.75.95,1.31,1.1.56.16,1.14.06,1.61-.16.46-.22.84-.53,1.15-.89.21.14.41.27.6.4.54.3.78.83.66,1.22-.1.29-.33.43-.53.48.02-.01.03-.02.05-.04.2-.2.2-.52,0-.71s-.52-.19-.71,0c-.2.2-.2.52,0,.71.02.02.03.03.05.04h0s0,0,0,0c.09.07.19.1.3.1.02,0,.05,0,.07,0,.13,0,.29-.01.46-.09.17-.08.34-.23.45-.45.11-.22.11-.53-.02-.8-.06-.13-.15-.27-.27-.37-.13-.11-.25-.2-.38-.29-.19-.13-.39-.26-.59-.39.25-.34.42-.73.51-1.13.09-.46.02-.95-.23-1.34-.23-.4-.61-.68-1.02-.83ZM267.68,116.37c.18-.1.39.07.51.19.29.28.52.63.64,1.02.12.37.22.74.3,1.11-1.33-1.11-1.82-2.11-1.45-2.31ZM272.5,122.61c-.42.14-.89.17-1.28.02-.39-.15-.69-.48-.86-.89-.16-.41-.21-.89-.22-1.35,0-.11,0-.23.01-.36v-.18s.02-.09.02-.13c.12.09.24.17.36.25.11.07.21.14.32.22-.02.39.1.76.26,1.01.28.43.63.62.86.71.12.05.21.07.27.08.06.01.09.02.09.02,0,0-.12-.06-.31-.21-.18-.15-.45-.39-.6-.77-.06-.15-.1-.33-.11-.52.45.3.88.58,1.3.85.32.21.63.4.92.59-.29.3-.65.54-1.05.67ZM274,119.6c.24.3.33.73.23,1.14-.08.36-.27.72-.52,1.02-.3-.19-.63-.39-.96-.6-.45-.27-.92-.57-1.4-.88.02-.2.09-.41.21-.6.28-.44.85-.74,1.53-.61.34.06.68.24.92.54Z"/>
</svg>