<svg width="20" height="30" viewBox="0 0 20 30" fill="none" xmlns="http://www.w3.org/2000/svg">
<path d="M0.0373308 20.6004C0.0373308 19.6668 0.0460515 18.7336 0.0341179 17.8004C0.0276921 17.2909 0.543592 16.7949 0.988348 16.7398C1.40511 16.688 1.71171 16.8989 2.03575 17.0978C2.32767 17.277 2.62234 17.4525 2.91471 17.6308C3.08178 17.7324 3.24656 17.8369 3.41363 17.9389C3.75144 18.1455 4.09292 18.3454 4.42661 18.5591C4.8374 18.8223 5.25599 19.072 5.67091 19.3279C6.14826 19.6222 6.6256 19.9179 7.10662 20.2055C7.59269 20.4964 8.07508 20.7936 8.55701 21.0912C9.21703 21.4991 9.88761 21.8878 10.5481 22.2942C10.9428 22.5372 11.3366 22.7831 11.7314 23.0256C12.2096 23.3194 12.6856 23.6185 13.1689 23.9027C13.5834 24.1467 13.9854 24.4122 14.4059 24.6446C14.5569 24.728 14.6624 24.6015 14.7625 24.5411C15.1113 24.3307 15.4615 24.1227 15.8113 23.9142C16.0922 23.7469 16.3726 23.5777 16.6494 23.4023C16.7834 23.3175 16.7862 23.2475 16.6494 23.1708C16.3295 22.9921 16.0192 22.7946 15.7034 22.6086C15.4115 22.437 15.1219 22.2578 14.8336 22.0781C14.5518 21.9022 14.2695 21.7282 13.9868 21.5542C13.7665 21.4186 13.5453 21.2844 13.3254 21.1482C13.0776 20.9944 12.8233 20.8501 12.5773 20.692C12.3703 20.5587 12.1527 20.4432 11.9425 20.3152C11.6097 20.113 11.2765 19.9112 10.9479 19.7013C10.5564 19.4516 10.1616 19.2052 9.76323 18.9689C9.36483 18.7322 8.97882 18.4729 8.57032 18.2524C8.24858 18.0784 7.96033 17.8378 7.64088 17.6581C7.19612 17.4079 6.76743 17.1304 6.33231 16.8634C5.93713 16.6209 5.54424 16.3722 5.14905 16.1296C4.67079 15.8363 4.19206 15.543 3.71334 15.2511C3.36038 15.0359 3.00788 14.8193 2.65538 14.6041C2.29783 14.386 1.94074 14.1674 1.58227 13.9513C1.22427 13.7351 0.861668 13.5285 0.509627 13.3004C0.230564 13.1192 0.108474 12.8484 0.0538543 12.5312C0.0368718 12.4319 0.0419206 12.3284 0.0419206 12.2268C0.0497234 10.336 0.061657 8.44523 0.0648699 6.55445C0.0657879 6.02004 0.332458 5.68071 0.755643 5.43819C0.96953 5.31549 1.18342 5.19184 1.39455 5.06387C1.65938 4.90331 1.91963 4.73508 2.18492 4.57499C2.39009 4.45086 2.6003 4.33631 2.80639 4.21313C3.15155 4.00752 3.49487 3.79855 3.83911 3.5915C4.32471 3.29961 4.81261 3.01156 5.29546 2.71488C5.69616 2.46901 6.09731 2.22361 6.50076 1.98349C6.9345 1.72516 7.36641 1.46251 7.80244 1.20753C8.29631 0.918518 8.78467 0.618964 9.27533 0.323244C9.39696 0.249913 9.51675 0.173707 9.63838 0.100855C9.91836 -0.0659366 10.1938 -0.00650512 10.4568 0.138719C10.9626 0.418143 11.4482 0.73543 11.9452 1.03115C12.379 1.28901 12.81 1.55309 13.2455 1.80855C13.7394 2.09804 14.2296 2.39568 14.7166 2.69763C15.1159 2.94494 15.5166 3.18986 15.9191 3.43046C16.3515 3.68879 16.782 3.95096 17.2167 4.20546C17.7064 4.49208 18.1893 4.79067 18.6744 5.08543C18.9388 5.246 19.2059 5.4008 19.4643 5.57143C19.8503 5.82641 20.0023 6.21607 20 6.67619C19.9931 8.13609 19.9807 9.596 19.9706 11.0559C19.9683 11.367 19.9573 11.6785 19.9688 11.9891C19.9835 12.3864 19.8407 12.7047 19.5708 12.975C19.2826 13.263 18.7304 13.3507 18.3821 13.1456C17.9125 12.8695 17.4462 12.5872 16.9808 12.303C16.4529 11.9805 15.932 11.6445 15.3996 11.3301C15.0439 11.1201 14.695 10.8973 14.3402 10.6864C13.8532 10.3974 13.3722 10.0978 12.888 9.80449C12.5346 9.59073 12.1862 9.3669 11.8282 9.16368C11.3747 8.90583 10.9336 8.62688 10.4866 8.35848C10.0937 8.12219 9.70539 7.87536 9.3125 7.63907C8.87555 7.37642 8.43997 7.1109 8.00256 6.84873C7.60508 6.61052 7.20943 6.36848 6.81654 6.12213C6.45257 5.89399 6.0739 5.69029 5.7159 5.45017C5.53965 5.33179 5.38543 5.38595 5.22708 5.48995C4.89615 5.70707 4.55053 5.89878 4.21226 6.10248C3.92677 6.27454 3.64082 6.44805 3.35579 6.62155C3.24564 6.68865 3.24197 6.7778 3.35579 6.83819C3.67984 7.01121 3.98552 7.2173 4.30268 7.40278C4.59459 7.57341 4.88146 7.75602 5.16924 7.93575C5.45519 8.11452 5.74252 8.29186 6.0303 8.46728C6.22721 8.5871 6.42778 8.70117 6.62423 8.82195C6.89732 8.9897 7.16675 9.16368 7.43984 9.33095C7.6395 9.45365 7.84329 9.56868 8.04387 9.69042C8.39178 9.9013 8.74244 10.1079 9.08531 10.3279C9.47177 10.5761 9.86604 10.8115 10.2562 11.0521C10.7386 11.3502 11.22 11.6507 11.7079 11.9392C12.3643 12.3279 13.011 12.7344 13.6655 13.1259C14.1562 13.4197 14.6432 13.7188 15.1292 14.0213C15.5235 14.2666 15.9182 14.513 16.3148 14.7541C16.799 15.0488 17.2819 15.346 17.7656 15.6422C18.1131 15.855 18.4624 16.064 18.808 16.2797C19.026 16.4158 19.25 16.5433 19.4698 16.6784C19.8554 16.9157 19.9958 17.2938 19.9954 17.73C19.9954 18.9387 19.9789 20.1475 19.9697 21.3558C19.9642 22.0618 19.9536 22.7678 19.9568 23.4737C19.9591 24.0019 19.6842 24.3307 19.2734 24.5742C18.959 24.7606 18.6478 24.9528 18.3306 25.1345C18.0121 25.3166 17.7041 25.5179 17.3819 25.6933C17.0749 25.8606 16.7839 26.06 16.4841 26.2431C16.1973 26.4185 15.909 26.5925 15.6203 26.765C15.4276 26.8805 15.2325 26.9912 15.0402 27.1072C14.7515 27.2812 14.4646 27.4585 14.1759 27.6325C13.9785 27.7514 13.7784 27.8659 13.5815 27.9848C13.2979 28.1559 13.0156 28.3294 12.7329 28.5024C12.5171 28.6342 12.3023 28.7675 12.0857 28.8969C11.8098 29.0613 11.5312 29.2209 11.2549 29.3843C11.0576 29.5008 10.8464 29.599 10.6683 29.7419C10.2475 30.0788 9.82106 30.075 9.39007 29.7941C8.99489 29.5362 8.58364 29.3076 8.18478 29.0574C7.66566 28.7315 7.13645 28.4238 6.6178 28.0969C6.26851 27.8769 5.91234 27.6661 5.55755 27.4547C5.07056 27.1652 4.58725 26.8704 4.10348 26.5752C3.75144 26.3605 3.39848 26.1453 3.04368 25.9358C2.55486 25.6478 2.07339 25.3473 1.58595 25.0568C1.20178 24.8277 0.801082 24.6231 0.441697 24.3571C0.130046 24.1304 0.00107097 23.7661 0.00061198 23.3649C-0.000764975 22.4433 0.00061198 21.5221 0.00061198 20.6004C0.0130046 20.6004 0.0253972 20.6004 0.0377898 20.6004H0.0373308ZM17.6986 19.6826C17.7046 19.6826 17.7101 19.6826 17.7161 19.6826C17.7161 19.3059 17.7142 18.9287 17.717 18.5519C17.7179 18.4187 17.6793 18.3228 17.5504 18.272C17.4017 18.2136 17.2681 18.1148 17.1377 18.0281C16.7063 17.742 16.2592 17.4831 15.8186 17.2162C15.423 16.9765 15.0255 16.7355 14.6243 16.503C14.1401 16.2226 13.6697 15.9149 13.1882 15.6273C12.8343 15.416 12.4859 15.1931 12.1334 14.9774C11.7809 14.7617 11.4284 14.5466 11.0773 14.3285C10.7266 14.1104 10.3769 13.8914 10.0244 13.6766C9.67235 13.4624 9.32352 13.2419 8.97194 13.0263C8.49367 12.7329 8.01541 12.4406 7.53898 12.1448C7.13967 11.8971 6.74127 11.6459 6.3392 11.402C5.90362 11.1374 5.4685 10.8723 5.03247 10.6087C4.63085 10.3662 4.23291 10.1155 3.83084 9.87303C3.39481 9.6099 2.96612 9.33335 2.5186 9.08987C2.37632 9.01223 2.34419 9.03571 2.3419 9.17375C2.3295 9.9454 2.32124 10.7171 2.31436 11.4887C2.31344 11.6095 2.36209 11.6905 2.47776 11.7537C2.76737 11.9129 3.04552 12.094 3.32734 12.268C3.62155 12.4497 3.9153 12.6332 4.21226 12.8082C4.52299 12.9913 4.82776 13.1849 5.14033 13.3651C5.43637 13.5357 5.7214 13.7274 6.01378 13.9057C6.41998 14.1535 6.82985 14.3951 7.23468 14.6448C7.89929 15.0546 7.90755 15.0704 8.47623 15.4193C9.69851 16.1694 10.751 16.7446 11.4192 17.1893C11.455 17.2133 11.6065 17.3077 11.8085 17.4458C11.954 17.5454 12.1619 17.682 12.4777 17.8728C12.8797 18.1158 13.2781 18.3674 13.6797 18.6123C14.1144 18.8774 14.5486 19.1448 14.9856 19.406C15.378 19.6409 15.764 19.8901 16.1574 20.1245C16.5998 20.3881 17.028 20.6776 17.4861 20.9134C17.6734 21.0097 17.6972 21.003 17.6982 20.7773C17.6995 20.4125 17.6982 20.0473 17.6982 19.6826H17.6986ZM17.7216 8.61586C17.7216 8.22668 17.7197 7.83798 17.7229 7.4488C17.7239 7.34048 17.7073 7.24462 17.611 7.18615C17.4108 7.06537 17.208 6.94938 17.0078 6.82908C16.5177 6.53384 16.0307 6.23141 15.5373 5.94192C15.1072 5.68934 14.6799 5.43052 14.2526 5.17314C13.8505 4.9311 13.4512 4.6814 13.0482 4.43984C12.6057 4.17431 12.16 3.91214 11.7194 3.64422C11.1861 3.31974 10.6454 3.00677 10.1222 2.66504C10.0593 2.62382 10.0143 2.62382 9.95095 2.66216C9.56816 2.89462 9.18261 3.12228 8.79844 3.35186C8.49 3.5359 8.1834 3.72282 7.87313 3.90351C7.82815 3.92987 7.79648 3.94809 7.80015 4.00704C7.80336 4.0612 7.82952 4.08804 7.87496 4.1144C8.19625 4.30084 8.51616 4.48968 8.8347 4.68092C9.34647 4.98814 9.85594 5.29872 10.3673 5.60642C10.6913 5.80149 11.0172 5.9932 11.3421 6.18683C11.5244 6.29515 11.7057 6.40491 11.8874 6.51371C12.172 6.68433 12.4556 6.85544 12.7407 7.02511C12.9481 7.14876 13.157 7.27002 13.364 7.39416C13.6384 7.55807 13.912 7.72391 14.186 7.88878C14.393 8.0134 14.6005 8.13753 14.8075 8.26215C15.0916 8.43325 15.3762 8.60292 15.6584 8.77738C15.9572 8.96238 16.2588 9.14355 16.5594 9.32376C16.8775 9.51452 17.1965 9.7048 17.5164 9.89316C17.5706 9.92527 17.6247 9.98566 17.6849 9.94923C17.7358 9.91808 17.7207 9.84044 17.7207 9.78196C17.722 9.39278 17.7216 9.00408 17.7211 8.6149L17.7216 8.61586ZM2.27764 21.3831H2.27718C2.27718 21.778 2.28039 22.1725 2.27534 22.5674C2.27397 22.6906 2.32124 22.7735 2.41809 22.831C2.7458 23.0275 3.0726 23.2259 3.40307 23.4181C3.83865 23.6717 4.27009 23.9339 4.70108 24.1951C5.12243 24.45 5.54469 24.7041 5.96283 24.9648C6.29422 25.1714 6.63019 25.3703 6.96479 25.5716C7.15619 25.6866 7.34988 25.7973 7.54036 25.9133C7.81346 26.0796 8.08334 26.2507 8.35644 26.4166C8.55747 26.5388 8.76218 26.6548 8.96367 26.7765C9.24687 26.9476 9.53373 27.113 9.80821 27.2984C9.94315 27.39 10.0538 27.4077 10.1768 27.2975C10.2071 27.2706 10.2346 27.2366 10.2699 27.2208C10.5926 27.0737 10.8799 26.8599 11.1879 26.685C11.5009 26.5076 11.8039 26.3111 12.1114 26.1232C12.1467 26.1017 12.2156 26.1151 12.2027 26.0422C12.1931 25.9886 12.1605 25.9459 12.1128 25.9171C11.7929 25.7278 11.4752 25.5332 11.153 25.3482C10.706 25.0918 10.2727 24.811 9.82519 24.5541C9.4681 24.3489 9.11789 24.128 8.76493 23.9142C8.28025 23.6214 7.79556 23.328 7.31133 23.0342C6.99784 22.844 6.68481 22.6489 6.375 22.4514C5.85818 22.1222 5.31382 21.8408 4.79517 21.5149C4.27101 21.1856 3.73813 20.8731 3.21213 20.5477C2.96749 20.3962 2.71826 20.2525 2.47867 20.0929C2.42635 20.0579 2.38045 20.0262 2.32583 20.0435C2.25056 20.0675 2.28131 20.1441 2.28085 20.1978C2.2781 20.5927 2.27947 20.9872 2.27947 21.3821L2.27764 21.3831Z" fill="#E11D48"/>
</svg>
